<svg id="Réteg_1" data-name="Réteg 1" xmlns="http://www.w3.org/2000/svg" viewBox="0 0 640 480"><defs><style>.cls-1{fill:#2f3e49;}.cls-2{fill:#868e95;}</style></defs><path class="cls-1" d="M251.25,257.09c-4.23-1.51-8.05-7-8.05-11.47V234.71l-2.91-1.56L239,229.84l4.54-2.85a8.13,8.13,0,0,1,7.76-5.64,8.29,8.29,0,0,1,8.14,8.09c0,4.2,4.32,8.74,4.32,8.74l34.38,20S255.66,258.65,251.25,257.09Z"/><path class="cls-2" d="M283.5,260.72c-13.12,0-30-.22-33.08-1.3h0c-5.18-1.84-9.71-8.29-9.71-13.8v-9.43l-2.43-1.31-2.28-6,5.53-3.48a10.59,10.59,0,0,1,9.81-6.48A10.74,10.74,0,0,1,262,229.44c0,2.44,2.28,5.52,3.41,6.8l41.82,24.29-9,.11C295.8,260.66,290.14,260.72,283.5,260.72Zm-31.41-6c2.24.76,19.25,1.07,37,1l-26.87-15.61-.25-.26c-.51-.54-5-5.4-5-10.44a5.79,5.79,0,0,0-5.65-5.62,5.63,5.63,0,0,0-5.39,3.92l-.27.86-3.59,2.26.21.55,3.39,1.83v12.38C245.69,249.08,248.86,253.61,252.09,254.75Z"/><polygon class="cls-2" points="310.33 266.8 296.82 259.04 310.33 251.28 310.33 266.8"/><path class="cls-1" d="M296.55,223.22c-4.23-1.5-8.05-7-8.05-11.47v-10.9l-2.91-1.57L284.34,196l4.53-2.84a8.15,8.15,0,0,1,7.77-5.65,8.29,8.29,0,0,1,8.14,8.09c0,4.2,4.31,8.74,4.31,8.74l34.39,20S301,224.78,296.55,223.22Z"/><path class="cls-2" d="M328.8,226.85c-13.12,0-30-.22-33.09-1.3h0c-5.17-1.84-9.71-8.29-9.71-13.8v-9.43L283.58,201l-2.28-6,5.53-3.48a10.59,10.59,0,0,1,9.81-6.48,10.74,10.74,0,0,1,10.63,10.57c0,2.44,2.28,5.52,3.41,6.8l41.82,24.29-9,.11C341.1,226.8,335.44,226.85,328.8,226.85Zm-31.41-6c2.24.75,19.26,1.06,37,1l-26.87-15.62-.25-.26c-.51-.53-5-5.4-5-10.44a5.78,5.78,0,0,0-5.64-5.62,5.63,5.63,0,0,0-5.39,3.92l-.27.87L287.39,197l.21.55,3.39,1.83v12.38C291,215.21,294.16,219.74,297.39,220.89Z"/><polygon class="cls-2" points="355.63 232.93 342.12 225.17 355.63 217.41 355.63 232.93"/><path class="cls-1" d="M344.92,285.29c-4.24-1.5-8.06-7-8.06-11.47v-10.9l-2.9-1.57-1.25-3.3,4.53-2.85a8.13,8.13,0,0,1,7.76-5.65,8.29,8.29,0,0,1,8.14,8.09c0,4.21,4.32,8.75,4.32,8.75l34.39,20S349.32,286.86,344.92,285.29Z"/><path class="cls-2" d="M377.17,288.93c-13.12,0-30-.22-33.09-1.31h0c-5.17-1.83-9.71-8.28-9.71-13.8v-9.43l-2.42-1.3L329.66,257l5.53-3.48a10.61,10.61,0,0,1,9.81-6.48,10.74,10.74,0,0,1,10.63,10.57c0,2.44,2.29,5.52,3.42,6.8l41.82,24.3-9,.1C389.47,288.87,383.8,288.93,377.17,288.93Zm-31.41-6c2.23.76,19.25,1.07,37,1l-26.88-15.61-.24-.26c-.51-.54-5-5.4-5-10.45A5.78,5.78,0,0,0,345,252a5.61,5.61,0,0,0-5.38,3.92l-.28.86-3.59,2.25.21.56,3.39,1.83v12.37C339.35,277.29,342.52,281.81,345.76,283Z"/><polygon class="cls-2" points="404 295 390.48 287.24 404 279.49 404 295"/><ellipse class="cls-2" cx="251.31" cy="229.27" rx="2.49" ry="2.48"/><ellipse class="cls-2" cx="296.66" cy="195.01" rx="2.49" ry="2.48"/><ellipse class="cls-2" cx="345.07" cy="258.05" rx="2.49" ry="2.48"/></svg>