<svg xmlns="http://www.w3.org/2000/svg" viewBox="0 0 1300 2650">
  <defs>
    <style>
      .a {
        fill: #f96400;
      }

      .b {
        fill: #f99d00;
      }

      .c {
        fill: #3a646f;
      }

      .d {
        fill: #73c8de;
      }

      .e {
        fill: #c7e9f2;
      }

      .f {
        fill: #2f3e49;
      }

      .g {
        fill: #868e95;
      }
    </style>
  </defs>
  <g>
    <polygon class="a" points="1193.5 2055.7 1188.5 2055.7 1188.5 2036.6 1196.9 2027.7 1200.5 2031.1 1193.5 2038.5 1193.5 2055.7"/>
    <polygon class="a" points="1165.8 2069.3 1170.7 2069.3 1170.7 2045.2 1162.3 2036.4 1158.7 2039.8 1165.8 2047.2 1165.8 2069.3"/>
    <rect class="a" x="1156.7" y="2035.3" width="34.2" height="4.96"/>
    <rect class="a" x="1056.2" y="1985.3" width="34.2" height="4.96"/>
    <rect class="a" x="1197.4" y="2055.7" width="34.2" height="4.96"/>
    <polygon class="b" points="1209.7 2031.7 1197.4 2031.7 1190.2 2021.6 1173.7 2021.6 1173.7 2016.6 1192.8 2016.6 1200 2026.8 1209.7 2026.8 1209.7 2031.7"/>
    <polygon class="a" points="1132.9 2019.2 1120.5 2019.2 1113.3 2009.1 1079.1 2009.1 1079.1 2004.1 1115.9 2004.1 1123.1 2014.3 1132.9 2014.3 1132.9 2019.2"/>
    <polygon class="a" points="1205.2 2106.9 1192.9 2106.9 1185.7 2096.7 1151.5 2096.7 1151.5 2091.7 1188.2 2091.7 1195.4 2101.9 1205.2 2101.9 1205.2 2106.9"/>
    <polygon class="b" points="1176.7 2021.6 1164.4 2021.6 1157.2 2011.4 1142.6 2011.4 1142.6 2006.4 1159.8 2006.4 1167 2016.6 1176.7 2016.6 1176.7 2021.6"/>
    <polygon class="b" points="1128.4 1995.3 1116.1 1995.3 1108.9 1985.1 1094.3 1985.1 1094.3 1980.2 1111.4 1980.2 1118.6 1990.4 1128.4 1990.4 1128.4 1995.3"/>
    <polygon class="b" points="1170.8 2081.3 1158.5 2081.3 1151.3 2071.1 1136.7 2071.1 1136.7 2066.2 1153.8 2066.2 1161 2076.3 1170.8 2076.3 1170.8 2081.3"/>
    <polygon class="b" points="1079.1 2009.1 1079.1 1996.7 1089.3 1989.5 1089.3 1974.9 1094.3 1974.9 1094.3 1992.1 1084.1 1999.3 1084.1 2009.1 1079.1 2009.1"/>
    <polygon class="a" points="1098.6 2030 1086.2 2030 1079 2019.8 1064.4 2019.8 1064.4 2014.9 1081.6 2014.9 1088.8 2025.1 1098.6 2025.1 1098.6 2030"/>
    <polygon class="a" points="1102.9 2079.6 1102.9 2091.9 1092.8 2099.1 1092.8 2113.7 1087.8 2113.7 1087.8 2096.6 1098 2089.4 1098 2079.6 1102.9 2079.6"/>
    <polygon class="b" points="1124.9 2040.2 1112.5 2040.2 1105.3 2030.1 1088.9 2030.1 1088.9 2025.1 1107.9 2025.1 1115.1 2035.3 1124.9 2035.3 1124.9 2040.2"/>
    <polygon class="b" points="1125.9 2089.5 1116.6 2089.5 1109.4 2079.4 1102.9 2079.4 1102.9 2074.4 1112 2074.4 1119.2 2084.6 1125.9 2084.6 1125.9 2089.5"/>
    <polygon class="a" points="1183.3 2091.7 1183.3 2079.4 1193.5 2072.2 1193.5 2055.7 1198.5 2055.7 1198.5 2074.8 1188.3 2082 1188.3 2091.7 1183.3 2091.7"/>
    <polygon class="a" points="1045.3 1990.8 1045.3 1978.5 1055.5 1971.3 1055.5 1954.8 1060.5 1954.8 1060.5 1973.9 1050.3 1981.1 1050.3 1990.8 1045.3 1990.8"/>
    <polygon class="a" points="1125.5 2050.4 1137.8 2050.4 1145 2040.2 1161.5 2040.2 1161.5 2035.3 1142.5 2035.3 1135.3 2045.5 1125.5 2045.5 1125.5 2050.4"/>
    <rect class="a" x="1124.9" y="2030.3" width="18.6" height="4.96"/>
    <rect class="a" x="1142.6" y="2023.2" width="5" height="13.04"/>
    <rect class="a" x="1131.7" y="2058.2" width="5" height="13.04"/>
    <rect class="b" x="1098" y="2061.4" width="5" height="13.04"/>
    <rect class="b" x="1161.5" y="2087.5" width="5" height="13.04"/>
    <rect class="b" x="1112.5" y="2039.4" width="5" height="13.04"/>
    <rect class="b" x="1056.2" y="2033.4" width="5" height="13.04"/>
    <rect class="a" x="1125.9" y="2071.3" width="5" height="13.04"/>
    <polygon class="a" points="1304.2 2110.1 1309.2 2110.1 1309.2 2134.2 1300.8 2143.1 1297.2 2139.6 1304.2 2132.2 1304.2 2110.1"/>
    <rect class="a" x="1295.2" y="2139.2" width="16.8" height="4.96"/>
    <rect class="a" x="1194.7" y="2189.2" width="34.2" height="4.96"/>
    <polygon class="a" points="1271.3 2160.2 1259 2160.2 1251.8 2170.4 1217.6 2170.4 1217.6 2175.4 1254.4 2175.4 1261.5 2165.2 1271.3 2165.2 1271.3 2160.2"/>
    <rect class="a" x="1289.9" y="2082.8" width="22.1" height="4.96"/>
    <polygon class="b" points="1312 2157.9 1302.9 2157.9 1295.7 2168.1 1281.1 2168.1 1281.1 2173 1298.2 2173 1305.4 2162.8 1312 2162.8 1312 2157.9"/>
    <polygon class="b" points="1266.8 2184.1 1254.5 2184.1 1247.3 2194.3 1232.7 2194.3 1232.7 2199.3 1249.9 2199.3 1257.1 2189.1 1266.8 2189.1 1266.8 2184.1"/>
    <polygon class="b" points="1309.2 2098.2 1296.9 2098.2 1289.7 2108.3 1275.1 2108.3 1275.1 2113.3 1292.3 2113.3 1299.5 2103.1 1309.2 2103.1 1309.2 2098.2"/>
    <polygon class="b" points="1217.6 2170.4 1217.6 2182.7 1227.8 2189.9 1227.8 2204.5 1232.7 2204.5 1232.7 2187.3 1222.5 2180.2 1222.5 2170.4 1217.6 2170.4"/>
    <polygon class="a" points="1237 2149.4 1224.7 2149.4 1217.5 2159.6 1202.9 2159.6 1202.9 2164.6 1220.1 2164.6 1227.3 2154.4 1237 2154.4 1237 2149.4"/>
    <polygon class="a" points="1241.4 2099.9 1241.4 2087.5 1231.2 2080.3 1231.2 2065.7 1226.2 2065.7 1226.2 2082.9 1236.4 2090.1 1236.4 2099.9 1241.4 2099.9"/>
    <polygon class="b" points="1263.3 2139.2 1251 2139.2 1243.8 2149.4 1227.3 2149.4 1227.3 2154.4 1246.4 2154.4 1253.6 2144.2 1263.3 2144.2 1263.3 2139.2"/>
    <polygon class="b" points="1264.4 2089.9 1255 2089.9 1247.8 2100.1 1241.4 2100.1 1241.4 2105.1 1250.4 2105.1 1257.6 2094.9 1264.4 2094.9 1264.4 2089.9"/>
    <polygon class="a" points="1183.8 2188.6 1183.8 2201 1194 2208.2 1194 2224.6 1198.9 2224.6 1198.9 2205.6 1188.7 2198.4 1188.7 2188.6 1183.8 2188.6"/>
    <polygon class="a" points="1264 2129.1 1276.3 2129.1 1283.5 2139.2 1299.9 2139.2 1299.9 2144.2 1280.9 2144.2 1273.7 2134 1264 2134 1264 2129.1"/>
    <rect class="a" x="1263.3" y="2144.2" width="18.6" height="4.96"/>
    <rect class="a" x="1281.1" y="2143.2" width="5" height="13.04"/>
    <rect class="a" x="1270.2" y="2108.2" width="5" height="13.04"/>
    <rect class="b" x="1236.4" y="2105.1" width="5" height="13.04"/>
    <rect class="b" x="1299.9" y="2078.9" width="5" height="13.04"/>
    <rect class="b" x="1250.9" y="2127.1" width="5" height="13.04"/>
    <rect class="b" x="1194.7" y="2133" width="5" height="13.04"/>
    <rect class="a" x="1264.4" y="2095.2" width="5" height="13.04"/>
  </g>
  <g>
    <g>
      <rect class="c" x="1100" y="269.3" width="6.3" height="15.37"/>
      <rect class="c" x="1112.6" y="269.3" width="6.3" height="15.37"/>
      <rect class="c" x="1144.2" y="253.5" width="6.3" height="15.37"/>
      <rect class="c" x="1150.5" y="269.3" width="6.3" height="15.37"/>
      <rect class="c" x="1169.5" y="254" width="6.3" height="15.37"/>
      <rect class="c" x="1175.8" y="269.3" width="6.3" height="15.37"/>
      <rect class="c" x="1201.1" y="269.3" width="6.3" height="15.37"/>
      <rect class="d" x="1112.6" y="300.1" width="6.3" height="15.37"/>
      <rect class="d" x="1125.2" y="300.1" width="6.3" height="15.37"/>
      <rect class="d" x="1137.9" y="300.1" width="6.3" height="15.37"/>
      <rect class="d" x="1163.2" y="300.1" width="6.3" height="15.37"/>
      <rect class="d" x="1175.8" y="300.1" width="6.3" height="15.37"/>
      <rect class="c" x="1188.4" y="300.1" width="6.3" height="15.37"/>
      <rect class="d" x="1201.1" y="300.1" width="6.3" height="15.37"/>
      <rect class="d" x="1137.9" y="330.8" width="6.3" height="15.37"/>
      <rect class="d" x="1150.5" y="330.8" width="6.3" height="15.37"/>
      <rect class="d" x="1163.2" y="330.8" width="6.3" height="15.37"/>
      <rect class="d" x="1175.8" y="330.8" width="6.3" height="15.37"/>
      <rect class="d" x="1188.4" y="330.8" width="6.3" height="15.37"/>
      <rect class="e" x="1137.9" y="361.5" width="6.3" height="15.37"/>
      <rect class="d" x="1163.2" y="361.5" width="6.3" height="15.37"/>
      <rect class="e" x="1175.8" y="361.5" width="6.3" height="15.37"/>
      <rect class="e" x="1150.5" y="392.3" width="6.3" height="15.37"/>
      <rect class="e" x="1163.2" y="392.3" width="6.3" height="15.37"/>
      <rect class="e" x="1188.4" y="361.5" width="6.3" height="15.37"/>
      <rect class="d" x="1201.1" y="330.8" width="6.3" height="15.37"/>
      <rect class="c" x="1226.3" y="269.3" width="6.3" height="15.37"/>
      <rect class="d" x="1106.3" y="284.7" width="6.3" height="15.37"/>
      <rect class="c" x="1118.9" y="284.7" width="6.3" height="15.37"/>
      <rect class="d" x="1131.6" y="284.7" width="6.3" height="15.37"/>
      <rect class="d" x="1144.2" y="284.7" width="6.3" height="15.37"/>
      <rect class="d" x="1156.8" y="284.7" width="6.3" height="15.37"/>
      <rect class="d" x="1169.5" y="284.7" width="6.3" height="15.37"/>
      <rect class="d" x="1182.1" y="284.7" width="6.3" height="15.37"/>
      <rect class="c" x="1194.7" y="284.7" width="6.3" height="15.37"/>
      <rect class="d" x="1207.4" y="284.7" width="6.3" height="15.37"/>
      <rect class="d" x="1118.9" y="315.4" width="6.3" height="15.37"/>
      <rect class="d" x="1131.6" y="315.4" width="6.3" height="15.37"/>
      <rect class="c" x="1144.2" y="315.4" width="6.3" height="15.37"/>
      <rect class="d" x="1156.8" y="315.4" width="6.3" height="15.37"/>
      <rect class="d" x="1169.5" y="315.4" width="6.3" height="15.37"/>
      <rect class="d" x="1182.1" y="315.4" width="6.3" height="15.37"/>
      <rect class="d" x="1194.7" y="315.4" width="6.3" height="15.37"/>
      <rect class="e" x="1131.6" y="346.2" width="6.3" height="15.37"/>
      <rect class="e" x="1144.2" y="346.2" width="6.3" height="15.37"/>
      <rect class="e" x="1156.8" y="346.2" width="6.3" height="15.37"/>
      <rect class="d" x="1169.5" y="346.2" width="6.3" height="15.37"/>
      <rect class="e" x="1182.1" y="346.2" width="6.3" height="15.37"/>
      <rect class="e" x="1144.2" y="376.9" width="6.3" height="15.37"/>
      <rect class="d" x="1156.8" y="376.9" width="6.3" height="15.37"/>
      <rect class="e" x="1169.5" y="376.9" width="6.3" height="15.37"/>
      <rect class="e" x="1163.2" y="422.3" width="6.3" height="15.37"/>
      <rect class="e" x="1156.8" y="407" width="6.3" height="15.37"/>
      <rect class="e" x="1169.5" y="407" width="6.3" height="15.37"/>
      <rect class="e" x="1182.1" y="376.9" width="6.3" height="15.37"/>
      <rect class="e" x="1194.7" y="346.2" width="6.3" height="15.37"/>
      <rect class="d" x="1207.4" y="315.4" width="6.3" height="15.37"/>
      <rect class="d" x="1220" y="284.7" width="6.3" height="15.37"/>
      <rect class="c" x="1213.7" y="254" width="6.3" height="15.37"/>
      <rect class="c" x="1118.9" y="254" width="6.3" height="15.37"/>
      <rect class="c" x="1087.3" y="237.8" width="6.3" height="15.37"/>
      <rect class="c" x="1194.7" y="238" width="6.3" height="15.37"/>
      <rect class="c" x="1239" y="239.7" width="6.3" height="15.37"/>
      <rect class="d" x="1087.3" y="300.1" width="6.3" height="15.37"/>
      <rect class="d" x="1232.6" y="254" width="6.3" height="15.37"/>
    </g>
    <path class="e" d="M1165.5,461.3c-7.2,0-12.6-3.6-12.6-8.5s5.4-8.5,12.6-8.5,12.6,3.6,12.6,8.5S1172.7,461.3,1165.5,461.3Zm0-10.7c-4,0-6.2,1.7-6.3,2.2s2.3,2.2,6.3,2.2,6.2-1.7,6.3-2.2S1169.6,450.6,1165.5,450.6Z"/>
  </g>
  <g>
    <g>
      <g>
        <path class="f" d="M66.8,968.8c-4.2-1.5-8.1-7-8.1-11.6v-11l-2.9-1.5-1.2-3.4,4.5-2.9a8.3,8.3,0,0,1,7.8-5.7,8.4,8.4,0,0,1,8.2,8.2c0,4.3,4.3,8.8,4.3,8.8l34.5,20.2S71.2,970.4,66.8,968.8Z"/>
        <path class="g" d="M99.2,972.5c-13.2,0-30.2-.2-33.2-1.3h0c-5.2-1.9-9.8-8.4-9.8-14v-9.5l-2.4-1.3-2.3-6.1,5.6-3.5a10.5,10.5,0,0,1,9.8-6.6,10.8,10.8,0,0,1,10.7,10.7c0,2.5,2.3,5.6,3.4,6.9l42,24.5H99.2Zm-31.5-6c2.2.7,19.3,1,37.1,1l-27-15.8-.2-.2c-.5-.6-5-5.5-5-10.6a5.9,5.9,0,0,0-5.7-5.7,5.7,5.7,0,0,0-5.4,4l-.3.9-3.6,2.3.2.5,3.4,1.9v12.4C61.2,960.7,64.4,965.3,67.7,966.5Z"/>
      </g>
      <polygon class="g" points="126.1 978.6 112.5 970.8 126.1 963 126.1 978.6"/>
    </g>
    <g>
      <g>
        <path class="f" d="M112.3,934.6c-4.3-1.5-8.1-7-8.1-11.5v-11l-2.9-1.6-1.3-3.4,4.6-2.8a8.1,8.1,0,0,1,7.8-5.7,8.3,8.3,0,0,1,8.1,8.1c0,4.3,4.4,8.9,4.4,8.9l34.5,20.1S116.7,936.2,112.3,934.6Z"/>
        <path class="g" d="M144.6,938.3c-13.1,0-30.1-.2-33.2-1.3h0c-5.2-1.9-9.7-8.4-9.7-13.9v-9.6l-2.4-1.3L97,906.1l5.5-3.5a10.7,10.7,0,0,1,20.5,4.1c0,2.5,2.3,5.6,3.5,6.9l41.9,24.5H144.6Zm-31.5-6c2.3.7,19.3,1.1,37.2,1l-27-15.8-.3-.2c-.5-.6-5-5.5-5-10.6a5.7,5.7,0,0,0-5.6-5.6A5.5,5.5,0,0,0,107,905l-.3.9-3.6,2.3.2.5,3.4,1.9v12.5C106.7,926.6,109.9,931.1,113.1,932.3Z"/>
      </g>
      <polygon class="g" points="171.6 944.4 158 936.6 171.6 928.8 171.6 944.4"/>
    </g>
    <g>
      <g>
        <path class="f" d="M160.8,997.3c-4.2-1.5-8.1-7.1-8.1-11.6v-11l-2.9-1.6-1.2-3.3,4.5-2.9a8.1,8.1,0,0,1,7.8-5.7,8.4,8.4,0,0,1,8.2,8.2c0,4.2,4.3,8.8,4.3,8.8l34.5,20.2S165.2,998.9,160.8,997.3Z"/>
        <path class="g" d="M193.2,1001c-13.2,0-30.2-.3-33.2-1.4h0c-5.2-1.8-9.8-8.3-9.8-13.9v-9.5l-2.4-1.3-2.3-6.1,5.5-3.5a10.7,10.7,0,0,1,9.9-6.6,10.8,10.8,0,0,1,10.7,10.7c0,2.4,2.2,5.6,3.4,6.8l41.9,24.6H193.2Zm-31.6-6.1c2.3.8,19.4,1.1,37.2,1l-27-15.7-.2-.3c-.5-.5-5-5.4-5-10.5a5.9,5.9,0,0,0-5.7-5.7,5.6,5.6,0,0,0-5.4,4l-.3.8-3.6,2.3.2.6,3.4,1.8v12.5C155.2,989.2,158.4,993.8,161.6,994.9Z"/>
      </g>
      <polygon class="g" points="220.1 1007.1 206.5 999.3 220.1 991.4 220.1 1007.1"/>
    </g>
    <circle class="g" cx="66.9" cy="940.8" r="2.5"/>
    <circle class="g" cx="112.4" cy="906.2" r="2.5"/>
    <circle class="g" cx="161" cy="969.8" r="2.5"/>
  </g>
</svg>
