<svg xmlns="http://www.w3.org/2000/svg" viewBox="0 0 276.5 144.2">
  <defs>
    <style>
      .a {
        fill: #4a668c;
      }

      .b {
        fill: #41ca75;
      }
    </style>
  </defs>
  <g>
    <path class="a" d="M212.7,97c4,0,10.3-2.4,11.1-2.7L222,89.7c-2.5,1-7.3,2.4-9.5,2.3s-8.8-.4-13.5-6.1L195.2,89a21.7,21.7,0,0,0,17.1,7.9Z"/>
    <path class="a" d="M139.2,107.8c2-1.7,6-4.7,8.1-5.4s8.4-2.6,14.8,1.2l2.5-4.2c-8.3-4.9-15.6-2.7-18.8-1.7s-9.3,5.9-9.9,6.4Z"/>
    <g>
      <path class="b" d="M205.7,112.6a40.9,40.9,0,0,0,8.8-.8l5.3-.8-.8-4.8-5.4.8c-.3.1-23.9,4.4-32.8-10.7C169.7,77.4,148.9,80.5,143,83.7l2.4,4.3c2.9-1.6,21.1-6.3,31.1,10.7,4.5,7.6,12.5,12.3,23.2,13.5A44.1,44.1,0,0,0,205.7,112.6Z"/>
      <path class="b" d="M207.2,74.6a56.4,56.4,0,0,1-7.6-4.3l-4.4-3,2.7-4.1,4.6,3c.3.2,19.7,14.1,34.3,4.2,18.2-12.3,35.6-.7,39.5,4.7l-4,2.9c-2-2.7-16.3-14.7-32.7-3.5-7.3,5-16.6,5.8-26.8,2.3A40.8,40.8,0,0,1,207.2,74.6Z"/>
      <path class="b" d="M213.1,111.6a37.9,37.9,0,0,0,8.3-.9l-1.3-4.8c-1,.3-22.9,5.9-33.6-16.2C174,63.9,148.4,71.3,148.1,71.4l1.5,4.7c.9-.3,21.8-6.2,32.5,15.8C190.2,108.6,204.2,111.6,213.1,111.6Z"/>
      <path class="b" d="M133.9,78a57.1,57.1,0,0,0,8.8-.7l5.3-.8-.7-4.9-5.5.8c-.3.1-23.9,4.4-32.8-10.7C97.9,42.8,77.2,45.9,71.3,49.1l2.4,4.3c2.9-1.5,21-6.3,31,10.8,4.5,7.5,12.5,12.2,23.3,13.5Z"/>
      <path class="a" d="M132,92.2a53,53,0,0,0,8.5-2.4l5.1-1.8-1.7-4.7-5.2,1.9c-.3.1-22.6,8.9-34.3-4.2-14.6-16.4-34.3-9.3-39.5-5l3.2,3.8c2.6-2.1,19.4-10.3,32.6,4.5,5.9,6.5,14.7,9.6,25.4,8.7Z"/>
      <path class="a" d="M141.4,77a36.4,36.4,0,0,0,8.2-.9l-1.3-4.7c-.9.2-22.8,5.8-33.5-16.2C102.3,29.3,76.6,36.7,76.4,36.8l1.4,4.7c.9-.2,21.9-6.2,32.5,15.8C118.4,74,132.4,77,141.4,77Z"/>
    </g>
    <g>
      <path class="b" d="M63.2,43.2a57.1,57.1,0,0,0,8.8-.7l5.3-.8-.7-4.9-5.5.8c-.3.1-23.9,4.4-32.8-10.7C27.2,8,6.5,11.1.6,14.4L3,18.7c2.9-1.6,21-6.4,31,10.7C38.5,37,46.5,41.6,57.3,42.9Z"/>
      <path class="b" d="M70.7,42.2a30.6,30.6,0,0,0,8.2-.9l-1.3-4.7c-.9.2-22.9,5.8-33.5-16.2C31.6-5.4,5.9,2,5.7,2L7.1,6.7C8,6.5,29,.6,39.6,22.5,47.7,39.3,61.7,42.2,70.7,42.2Z"/>
      <path class="b" d="M4.8,2.2,0,3V8H.2l5.3-.8Z"/>
      <polygon class="b" points="0 19.7 3.1 18.6 1.4 14 0 14.5 0 19.7"/>
      <path class="b" d="M0,7.6a38.7,38.7,0,0,0,7.1-.8L5.8,2A23.9,23.9,0,0,1,0,2.8Z"/>
    </g>
    <g>
      <path class="b" d="M70.5,49.5l-5,2.3c-.3.2-21.8,10.7-34.5-1.4C20.3,40.2,8.3,40.8,0,43.7V49c6.4-2.8,17.4-4.7,27.6,5,6.4,6,15.4,8.3,26,6.6a46.8,46.8,0,0,0,5.9-1.3,42.6,42.6,0,0,0,8.2-3.1L72.6,54Z"/>
      <path class="a" d="M71.4,49c-.8.5-20.3,11.9-36.7-6.4C22.2,28.6,8.3,29.7,0,32.3v5.1c6.6-2.5,19.4-4.6,31,8.5S57.8,58.8,66.3,56.4A44.6,44.6,0,0,0,74,53.3Z"/>
    </g>
    <g>
      <path class="b" d="M137.4,138.7a47.6,47.6,0,0,0,8.2-3.1l4.9-2.2-2-4.5-5,2.3c-.3.1-21.8,10.7-34.6-1.4C93,114.6,74,123.3,69.2,128l3.5,3.5c2.3-2.4,18.4-11.9,32.8,1.8,6.4,6.1,15.4,8.4,26.1,6.7Z"/>
      <path class="b" d="M144.3,135.7a29.4,29.4,0,0,0,7.6-3.1l-2.5-4.2c-.8.5-20.4,11.8-36.7-6.5-19.2-21.4-41.8-7.3-42-7.2l2.7,4.2c.7-.5,19.3-11.9,35.6,6.3C121.4,139.1,135.7,138.1,144.3,135.7Z"/>
      <path class="b" d="M69.9,115.2l-5,2.2c-.3.2-21.8,10.8-34.5-1.4A29.3,29.3,0,0,0,0,109.1v5.2c6.5-2.6,17.1-4.1,26.9,5.3,6.4,6.1,15.4,8.4,26.1,6.6a41.6,41.6,0,0,0,5.8-1.3,50.1,50.1,0,0,0,8.3-3l4.9-2.3Z"/>
      <path class="a" d="M69.9,127.4l-4.5,3.2c-.2.2-19.2,14.7-34.1,5.3C19.1,128.1,7.5,130.7,0,135v5.9c5.6-4.1,16.4-8.7,28.6-.9,7.5,4.8,16.8,5.3,26.9,1.5a45.8,45.8,0,0,0,5.4-2.4,42.1,42.1,0,0,0,7.5-4.6l4.4-3.1Z"/>
      <path class="b" d="M70.8,114.7c-.8.5-20.3,11.8-36.7-6.5C21.9,94.6,8.3,95.3,0,97.7v5.1c6.8-2.4,19.1-3.9,30.4,8.7S57.1,124.4,65.7,122a39.9,39.9,0,0,0,7.7-3.1Z"/>
    </g>
    <g>
      <path class="b" d="M64.3,76.5l-4.6,3c-.3.2-19.9,13.9-34.4,3.8A29.1,29.1,0,0,0,0,78.7v5.2c6-2.1,14-2.5,22.5,3.4S39,93.3,49.3,90a48.4,48.4,0,0,0,5.5-2.2,44.7,44.7,0,0,0,7.7-4.3L67,80.6Z"/>
      <path class="b" d="M65.1,75.9c-.7.6-18.3,14.7-37.3-.9C17.5,66.5,7.6,65.7,0,67.2v5c6.6-1.6,15.3-1.1,24.7,6.6,14.4,11.8,28.4,8.7,36.5,5.1a34.7,34.7,0,0,0,7.1-4.3Z"/>
    </g>
  </g>
</svg>
