<svg id="Réteg_1" data-name="Réteg 1" xmlns="http://www.w3.org/2000/svg" viewBox="0 0 640 480">
  <defs>
    <style>
      .cls-1 {
        fill: #3a646f;
      }

      .cls-2 {
        fill: #73c8de;
      }

      .cls-3 {
        fill: #c7e9f2;
      }
    </style>
  </defs>
  <g>
    <g>
      <rect class="cls-1" x="253.6" y="160" width="6.3" height="15.33"/>
      <rect class="cls-1" x="266.3" y="160" width="6.3" height="15.33"/>
      <rect class="cls-1" x="297.9" y="144.3" width="6.3" height="15.33"/>
      <rect class="cls-1" x="304.2" y="160" width="6.3" height="15.33"/>
      <rect class="cls-1" x="323.2" y="144.7" width="6.3" height="15.33"/>
      <rect class="cls-1" x="329.5" y="160" width="6.3" height="15.33"/>
      <rect class="cls-1" x="354.8" y="160" width="6.3" height="15.33"/>
      <rect class="cls-2" x="266.3" y="190.7" width="6.3" height="15.33"/>
      <rect class="cls-2" x="278.9" y="190.7" width="6.3" height="15.33"/>
      <rect class="cls-2" x="291.6" y="190.7" width="6.3" height="15.33"/>
      <rect class="cls-2" x="316.8" y="190.7" width="6.3" height="15.33"/>
      <rect class="cls-2" x="329.5" y="190.7" width="6.3" height="15.33"/>
      <rect class="cls-1" x="342.1" y="190.7" width="6.3" height="15.33"/>
      <rect class="cls-2" x="354.8" y="190.7" width="6.3" height="15.33"/>
      <rect class="cls-2" x="291.6" y="221.3" width="6.3" height="15.33"/>
      <rect class="cls-2" x="304.2" y="221.3" width="6.3" height="15.33"/>
      <rect class="cls-2" x="316.8" y="221.3" width="6.3" height="15.33"/>
      <rect class="cls-2" x="329.5" y="221.3" width="6.3" height="15.33"/>
      <rect class="cls-2" x="342.1" y="221.3" width="6.3" height="15.33"/>
      <rect class="cls-3" x="291.6" y="252" width="6.3" height="15.33"/>
      <rect class="cls-2" x="316.8" y="252" width="6.3" height="15.33"/>
      <rect class="cls-3" x="329.5" y="252" width="6.3" height="15.33"/>
      <rect class="cls-3" x="304.2" y="282.6" width="6.3" height="15.33"/>
      <rect class="cls-3" x="316.8" y="282.6" width="6.3" height="15.33"/>
      <rect class="cls-3" x="342.1" y="252" width="6.3" height="15.33"/>
      <rect class="cls-2" x="354.8" y="221.3" width="6.3" height="15.33"/>
      <rect class="cls-1" x="380" y="160" width="6.3" height="15.33"/>
      <rect class="cls-2" x="260" y="175.3" width="6.3" height="15.33"/>
      <rect class="cls-1" x="272.6" y="175.3" width="6.3" height="15.33"/>
      <rect class="cls-2" x="285.2" y="175.3" width="6.3" height="15.33"/>
      <rect class="cls-2" x="297.9" y="175.3" width="6.3" height="15.33"/>
      <rect class="cls-2" x="310.5" y="175.3" width="6.3" height="15.33"/>
      <rect class="cls-2" x="323.2" y="175.3" width="6.3" height="15.33"/>
      <rect class="cls-2" x="335.8" y="175.3" width="6.3" height="15.33"/>
      <rect class="cls-1" x="348.4" y="175.3" width="6.3" height="15.33"/>
      <rect class="cls-2" x="361.1" y="175.3" width="6.3" height="15.33"/>
      <rect class="cls-2" x="272.6" y="206" width="6.3" height="15.33"/>
      <rect class="cls-2" x="285.2" y="206" width="6.3" height="15.33"/>
      <rect class="cls-1" x="297.9" y="206" width="6.3" height="15.33"/>
      <rect class="cls-2" x="310.5" y="206" width="6.3" height="15.33"/>
      <rect class="cls-2" x="323.2" y="206" width="6.3" height="15.33"/>
      <rect class="cls-2" x="335.8" y="206" width="6.3" height="15.33"/>
      <rect class="cls-2" x="348.4" y="206" width="6.3" height="15.33"/>
      <rect class="cls-3" x="285.2" y="236.6" width="6.3" height="15.33"/>
      <rect class="cls-3" x="297.9" y="236.6" width="6.3" height="15.33"/>
      <rect class="cls-3" x="310.5" y="236.6" width="6.3" height="15.33"/>
      <rect class="cls-2" x="323.2" y="236.6" width="6.3" height="15.33"/>
      <rect class="cls-3" x="335.8" y="236.6" width="6.3" height="15.33"/>
      <rect class="cls-3" x="297.9" y="267.3" width="6.3" height="15.33"/>
      <rect class="cls-2" x="310.5" y="267.3" width="6.3" height="15.33"/>
      <rect class="cls-3" x="323.2" y="267.3" width="6.3" height="15.33"/>
      <rect class="cls-3" x="316.8" y="312.6" width="6.3" height="15.33"/>
      <rect class="cls-3" x="310.5" y="297.3" width="6.3" height="15.33"/>
      <rect class="cls-3" x="323.2" y="297.3" width="6.3" height="15.33"/>
      <rect class="cls-3" x="335.8" y="267.3" width="6.3" height="15.33"/>
      <rect class="cls-3" x="348.4" y="236.6" width="6.3" height="15.33"/>
      <rect class="cls-2" x="361.1" y="206" width="6.3" height="15.33"/>
      <rect class="cls-2" x="373.7" y="175.3" width="6.3" height="15.33"/>
      <rect class="cls-1" x="367.4" y="144.7" width="6.3" height="15.33"/>
      <rect class="cls-1" x="272.6" y="144.7" width="6.3" height="15.33"/>
      <rect class="cls-1" x="241" y="128.5" width="6.3" height="15.33"/>
      <rect class="cls-1" x="348.4" y="128.7" width="6.3" height="15.33"/>
      <rect class="cls-1" x="392.7" y="130.5" width="6.3" height="15.33"/>
      <rect class="cls-2" x="241" y="190.7" width="6.3" height="15.33"/>
      <rect class="cls-2" x="386.4" y="144.7" width="6.3" height="15.33"/>
    </g>
    <path class="cls-3" d="M319.2,351.5c-7.2,0-12.6-3.7-12.6-8.5s5.4-8.5,12.6-8.5,12.6,3.6,12.6,8.5S326.4,351.5,319.2,351.5Zm0-10.7c-4.1,0-6.2,1.7-6.3,2.2s2.2,2.2,6.3,2.2,6.2-1.7,6.3-2.2S323.2,340.8,319.2,340.8Z"/>
  </g>
</svg>
