<svg xmlns="http://www.w3.org/2000/svg" viewBox="0 0 1280 5300">
  <defs>
    <style>
      .a {
        fill: #f96400;
      }

      .b {
        fill: #f99d00;
      }

      .c {
        fill: #3a646f;
      }

      .d {
        fill: #73c8de;
      }

      .e {
        fill: #c7e9f2;
      }

      .f {
        fill: #2f3e49;
      }

      .g {
        fill: #868e95;
      }
    </style>
  </defs>
  <g>
    <polygon class="a" points="1161.5 4347.7 1156.5 4347.7 1156.5 4328.6 1164.9 4319.7 1168.5 4323.1 1161.5 4330.5 1161.5 4347.7"/>
    <polygon class="a" points="1133.8 4361.3 1138.7 4361.3 1138.7 4337.2 1130.3 4328.4 1126.7 4331.8 1133.8 4339.2 1133.8 4361.3"/>
    <rect class="a" x="1124.7" y="4327.3" width="34.2" height="4.96"/>
    <rect class="a" x="1024.2" y="4277.3" width="34.2" height="4.96"/>
    <rect class="a" x="1165.4" y="4347.7" width="34.2" height="4.96"/>
    <polygon class="b" points="1177.7 4323.7 1165.4 4323.7 1158.2 4313.6 1141.7 4313.6 1141.7 4308.6 1160.8 4308.6 1168 4318.8 1177.7 4318.8 1177.7 4323.7"/>
    <polygon class="a" points="1100.9 4311.2 1088.5 4311.2 1081.3 4301.1 1047.1 4301.1 1047.1 4296.1 1083.9 4296.1 1091.1 4306.3 1100.9 4306.3 1100.9 4311.2"/>
    <polygon class="a" points="1173.2 4398.9 1160.9 4398.9 1153.7 4388.7 1119.5 4388.7 1119.5 4383.7 1156.2 4383.7 1163.4 4393.9 1173.2 4393.9 1173.2 4398.9"/>
    <polygon class="b" points="1144.7 4313.6 1132.4 4313.6 1125.2 4303.4 1110.6 4303.4 1110.6 4298.4 1127.8 4298.4 1135 4308.6 1144.7 4308.6 1144.7 4313.6"/>
    <polygon class="b" points="1096.4 4287.3 1084.1 4287.3 1076.9 4277.1 1062.3 4277.1 1062.3 4272.2 1079.4 4272.2 1086.6 4282.4 1096.4 4282.4 1096.4 4287.3"/>
    <polygon class="b" points="1138.8 4373.3 1126.5 4373.3 1119.3 4363.1 1104.7 4363.1 1104.7 4358.2 1121.8 4358.2 1129 4368.3 1138.8 4368.3 1138.8 4373.3"/>
    <polygon class="b" points="1047.1 4301.1 1047.1 4288.7 1057.3 4281.5 1057.3 4266.9 1062.3 4266.9 1062.3 4284.1 1052.1 4291.3 1052.1 4301.1 1047.1 4301.1"/>
    <polygon class="a" points="1066.6 4322 1054.2 4322 1047 4311.8 1032.4 4311.8 1032.4 4306.9 1049.6 4306.9 1056.8 4317.1 1066.6 4317.1 1066.6 4322"/>
    <polygon class="a" points="1070.9 4371.6 1070.9 4383.9 1060.8 4391.1 1060.8 4405.7 1055.8 4405.7 1055.8 4388.6 1066 4381.4 1066 4371.6 1070.9 4371.6"/>
    <polygon class="b" points="1092.9 4332.2 1080.5 4332.2 1073.3 4322.1 1056.9 4322.1 1056.9 4317.1 1075.9 4317.1 1083.1 4327.3 1092.9 4327.3 1092.9 4332.2"/>
    <polygon class="b" points="1093.9 4381.5 1084.6 4381.5 1077.4 4371.4 1070.9 4371.4 1070.9 4366.4 1080 4366.4 1087.2 4376.6 1093.9 4376.6 1093.9 4381.5"/>
    <polygon class="a" points="1151.3 4383.7 1151.3 4371.4 1161.5 4364.2 1161.5 4347.7 1166.5 4347.7 1166.5 4366.8 1156.3 4374 1156.3 4383.7 1151.3 4383.7"/>
    <polygon class="a" points="1013.3 4282.8 1013.3 4270.5 1023.5 4263.3 1023.5 4246.8 1028.5 4246.8 1028.5 4265.9 1018.3 4273.1 1018.3 4282.8 1013.3 4282.8"/>
    <polygon class="a" points="1093.5 4342.4 1105.8 4342.4 1113 4332.2 1129.5 4332.2 1129.5 4327.3 1110.5 4327.3 1103.3 4337.5 1093.5 4337.5 1093.5 4342.4"/>
    <rect class="a" x="1092.9" y="4322.3" width="18.6" height="4.96"/>
    <rect class="a" x="1110.6" y="4315.2" width="5" height="13.04"/>
    <rect class="a" x="1099.7" y="4350.2" width="5" height="13.04"/>
    <rect class="b" x="1066" y="4353.4" width="5" height="13.04"/>
    <rect class="b" x="1129.5" y="4379.5" width="5" height="13.04"/>
    <rect class="b" x="1080.5" y="4331.4" width="5" height="13.04"/>
    <rect class="b" x="1024.2" y="4325.4" width="5" height="13.04"/>
    <rect class="a" x="1093.9" y="4363.3" width="5" height="13.04"/>
    <polygon class="a" points="1272.2 4402.1 1277.2 4402.1 1277.2 4426.2 1268.8 4435.1 1265.2 4431.6 1272.2 4424.2 1272.2 4402.1"/>
    <rect class="a" x="1263.2" y="4431.2" width="16.8" height="4.96"/>
    <rect class="a" x="1162.7" y="4481.2" width="34.2" height="4.96"/>
    <polygon class="a" points="1239.3 4452.2 1227 4452.2 1219.8 4462.4 1185.6 4462.4 1185.6 4467.4 1222.4 4467.4 1229.5 4457.2 1239.3 4457.2 1239.3 4452.2"/>
    <rect class="a" x="1257.9" y="4374.8" width="22.1" height="4.96"/>
    <polygon class="b" points="1280 4449.9 1270.9 4449.9 1263.7 4460.1 1249.1 4460.1 1249.1 4465 1266.2 4465 1273.4 4454.8 1280 4454.8 1280 4449.9"/>
    <polygon class="b" points="1234.8 4476.1 1222.5 4476.1 1215.3 4486.3 1200.7 4486.3 1200.7 4491.3 1217.9 4491.3 1225.1 4481.1 1234.8 4481.1 1234.8 4476.1"/>
    <polygon class="b" points="1277.2 4390.2 1264.9 4390.2 1257.7 4400.3 1243.1 4400.3 1243.1 4405.3 1260.3 4405.3 1267.5 4395.1 1277.2 4395.1 1277.2 4390.2"/>
    <polygon class="b" points="1185.6 4462.4 1185.6 4474.7 1195.8 4481.9 1195.8 4496.5 1200.7 4496.5 1200.7 4479.3 1190.5 4472.2 1190.5 4462.4 1185.6 4462.4"/>
    <polygon class="a" points="1205 4441.4 1192.7 4441.4 1185.5 4451.6 1170.9 4451.6 1170.9 4456.6 1188.1 4456.6 1195.3 4446.4 1205 4446.4 1205 4441.4"/>
    <polygon class="a" points="1209.4 4391.9 1209.4 4379.5 1199.2 4372.3 1199.2 4357.7 1194.2 4357.7 1194.2 4374.9 1204.4 4382.1 1204.4 4391.9 1209.4 4391.9"/>
    <polygon class="b" points="1231.3 4431.2 1219 4431.2 1211.8 4441.4 1195.3 4441.4 1195.3 4446.4 1214.4 4446.4 1221.6 4436.2 1231.3 4436.2 1231.3 4431.2"/>
    <polygon class="b" points="1232.4 4381.9 1223 4381.9 1215.8 4392.1 1209.4 4392.1 1209.4 4397.1 1218.4 4397.1 1225.6 4386.9 1232.4 4386.9 1232.4 4381.9"/>
    <polygon class="a" points="1151.8 4480.6 1151.8 4493 1162 4500.2 1162 4516.6 1166.9 4516.6 1166.9 4497.6 1156.7 4490.4 1156.7 4480.6 1151.8 4480.6"/>
    <polygon class="a" points="1232 4421.1 1244.3 4421.1 1251.5 4431.2 1267.9 4431.2 1267.9 4436.2 1248.9 4436.2 1241.7 4426 1232 4426 1232 4421.1"/>
    <rect class="a" x="1231.3" y="4436.2" width="18.6" height="4.96"/>
    <rect class="a" x="1249.1" y="4435.2" width="5" height="13.04"/>
    <rect class="a" x="1238.2" y="4400.2" width="5" height="13.04"/>
    <rect class="b" x="1204.4" y="4397.1" width="5" height="13.04"/>
    <rect class="b" x="1267.9" y="4370.9" width="5" height="13.04"/>
    <rect class="b" x="1218.9" y="4419.1" width="5" height="13.04"/>
    <rect class="b" x="1162.7" y="4425" width="5" height="13.04"/>
    <rect class="a" x="1232.4" y="4387.2" width="5" height="13.04"/>
  </g>
  <g>
    <g>
      <rect class="c" x="1049" y="3092.3" width="6.3" height="15.37"/>
      <rect class="c" x="1061.6" y="3092.3" width="6.3" height="15.37"/>
      <rect class="c" x="1093.2" y="3076.5" width="6.3" height="15.37"/>
      <rect class="c" x="1099.5" y="3092.3" width="6.3" height="15.37"/>
      <rect class="c" x="1118.5" y="3077" width="6.3" height="15.37"/>
      <rect class="c" x="1124.8" y="3092.3" width="6.3" height="15.37"/>
      <rect class="c" x="1150.1" y="3092.3" width="6.3" height="15.37"/>
      <rect class="d" x="1061.6" y="3123.1" width="6.3" height="15.37"/>
      <rect class="d" x="1074.2" y="3123.1" width="6.3" height="15.37"/>
      <rect class="d" x="1086.9" y="3123.1" width="6.3" height="15.37"/>
      <rect class="d" x="1112.2" y="3123.1" width="6.3" height="15.37"/>
      <rect class="d" x="1124.8" y="3123.1" width="6.3" height="15.37"/>
      <rect class="c" x="1137.4" y="3123.1" width="6.3" height="15.37"/>
      <rect class="d" x="1150.1" y="3123.1" width="6.3" height="15.37"/>
      <rect class="d" x="1086.9" y="3153.8" width="6.3" height="15.37"/>
      <rect class="d" x="1099.5" y="3153.8" width="6.3" height="15.37"/>
      <rect class="d" x="1112.2" y="3153.8" width="6.3" height="15.37"/>
      <rect class="d" x="1124.8" y="3153.8" width="6.3" height="15.37"/>
      <rect class="d" x="1137.4" y="3153.8" width="6.3" height="15.37"/>
      <rect class="e" x="1086.9" y="3184.5" width="6.3" height="15.37"/>
      <rect class="d" x="1112.2" y="3184.5" width="6.3" height="15.37"/>
      <rect class="e" x="1124.8" y="3184.5" width="6.3" height="15.37"/>
      <rect class="e" x="1099.5" y="3215.3" width="6.3" height="15.37"/>
      <rect class="e" x="1112.2" y="3215.3" width="6.3" height="15.37"/>
      <rect class="e" x="1137.4" y="3184.5" width="6.3" height="15.37"/>
      <rect class="d" x="1150.1" y="3153.8" width="6.3" height="15.37"/>
      <rect class="c" x="1175.3" y="3092.3" width="6.3" height="15.37"/>
      <rect class="d" x="1055.3" y="3107.7" width="6.3" height="15.37"/>
      <rect class="c" x="1067.9" y="3107.7" width="6.3" height="15.37"/>
      <rect class="d" x="1080.6" y="3107.7" width="6.3" height="15.37"/>
      <rect class="d" x="1093.2" y="3107.7" width="6.3" height="15.37"/>
      <rect class="d" x="1105.8" y="3107.7" width="6.3" height="15.37"/>
      <rect class="d" x="1118.5" y="3107.7" width="6.3" height="15.37"/>
      <rect class="d" x="1131.1" y="3107.7" width="6.3" height="15.37"/>
      <rect class="c" x="1143.7" y="3107.7" width="6.3" height="15.37"/>
      <rect class="d" x="1156.4" y="3107.7" width="6.3" height="15.37"/>
      <rect class="d" x="1067.9" y="3138.4" width="6.3" height="15.37"/>
      <rect class="d" x="1080.6" y="3138.4" width="6.3" height="15.37"/>
      <rect class="c" x="1093.2" y="3138.4" width="6.3" height="15.37"/>
      <rect class="d" x="1105.8" y="3138.4" width="6.3" height="15.37"/>
      <rect class="d" x="1118.5" y="3138.4" width="6.3" height="15.37"/>
      <rect class="d" x="1131.1" y="3138.4" width="6.3" height="15.37"/>
      <rect class="d" x="1143.7" y="3138.4" width="6.3" height="15.37"/>
      <rect class="e" x="1080.6" y="3169.2" width="6.3" height="15.37"/>
      <rect class="e" x="1093.2" y="3169.2" width="6.3" height="15.37"/>
      <rect class="e" x="1105.8" y="3169.2" width="6.3" height="15.37"/>
      <rect class="d" x="1118.5" y="3169.2" width="6.3" height="15.37"/>
      <rect class="e" x="1131.1" y="3169.2" width="6.3" height="15.37"/>
      <rect class="e" x="1093.2" y="3199.9" width="6.3" height="15.37"/>
      <rect class="d" x="1105.8" y="3199.9" width="6.3" height="15.37"/>
      <rect class="e" x="1118.5" y="3199.9" width="6.3" height="15.37"/>
      <rect class="e" x="1112.2" y="3245.3" width="6.3" height="15.37"/>
      <rect class="e" x="1105.8" y="3230" width="6.3" height="15.37"/>
      <rect class="e" x="1118.5" y="3230" width="6.3" height="15.37"/>
      <rect class="e" x="1131.1" y="3199.9" width="6.3" height="15.37"/>
      <rect class="e" x="1143.7" y="3169.2" width="6.3" height="15.37"/>
      <rect class="d" x="1156.4" y="3138.4" width="6.3" height="15.37"/>
      <rect class="d" x="1169" y="3107.7" width="6.3" height="15.37"/>
      <rect class="c" x="1162.7" y="3077" width="6.3" height="15.37"/>
      <rect class="c" x="1067.9" y="3077" width="6.3" height="15.37"/>
      <rect class="c" x="1036.3" y="3060.8" width="6.3" height="15.37"/>
      <rect class="c" x="1143.7" y="3061" width="6.3" height="15.37"/>
      <rect class="c" x="1188" y="3062.7" width="6.3" height="15.37"/>
      <rect class="d" x="1036.3" y="3123.1" width="6.3" height="15.37"/>
      <rect class="d" x="1181.6" y="3077" width="6.3" height="15.37"/>
    </g>
    <path class="e" d="M1114.5,3284.3c-7.2,0-12.6-3.6-12.6-8.5s5.4-8.5,12.6-8.5,12.6,3.6,12.6,8.5S1121.7,3284.3,1114.5,3284.3Zm0-10.7c-4,0-6.2,1.7-6.3,2.2s2.3,2.2,6.3,2.2,6.2-1.7,6.3-2.2S1118.6,3273.6,1114.5,3273.6Z"/>
  </g>
  <g>
    <g>
      <g>
        <path class="f" d="M89.8,3605.8c-4.2-1.5-8.1-7-8.1-11.6v-11l-2.9-1.5-1.2-3.4,4.5-2.9a8.3,8.3,0,0,1,7.8-5.7,8.4,8.4,0,0,1,8.2,8.2c0,4.3,4.3,8.8,4.3,8.8l34.5,20.2S94.2,3607.4,89.8,3605.8Z"/>
        <path class="g" d="M122.2,3609.5c-13.2,0-30.2-.2-33.2-1.3h0c-5.2-1.9-9.8-8.4-9.8-14v-9.5l-2.4-1.3-2.3-6.1,5.6-3.5a10.5,10.5,0,0,1,9.8-6.6,10.8,10.8,0,0,1,10.7,10.7c0,2.5,2.3,5.6,3.4,6.9l42,24.5H122.2Zm-31.5-6c2.2.7,19.3,1,37.1,1l-27-15.8-.2-.2c-.5-.6-5-5.5-5-10.6a5.9,5.9,0,0,0-5.7-5.7,5.7,5.7,0,0,0-5.4,4l-.3.9-3.6,2.3.2.5,3.4,1.9v12.4C84.2,3597.7,87.4,3602.3,90.7,3603.5Z"/>
      </g>
      <polygon class="g" points="149.1 3615.6 135.5 3607.8 149.1 3600 149.1 3615.6"/>
    </g>
    <g>
      <g>
        <path class="f" d="M135.3,3571.6c-4.3-1.5-8.1-7-8.1-11.5v-11l-2.9-1.6-1.3-3.4,4.6-2.8a8.1,8.1,0,0,1,7.8-5.7,8.3,8.3,0,0,1,8.1,8.1c0,4.3,4.4,8.9,4.4,8.9l34.5,20.1S139.7,3573.2,135.3,3571.6Z"/>
        <path class="g" d="M167.6,3575.3c-13.1,0-30.1-.2-33.2-1.3h0c-5.2-1.9-9.7-8.4-9.7-13.9v-9.6l-2.4-1.3-2.3-6.1,5.5-3.5a10.7,10.7,0,0,1,20.5,4.1c0,2.5,2.3,5.6,3.5,6.9l41.9,24.5H167.6Zm-31.5-6c2.3.7,19.3,1.1,37.2,1l-27-15.8-.3-.2c-.5-.6-5-5.5-5-10.6a5.7,5.7,0,0,0-5.6-5.6,5.5,5.5,0,0,0-5.4,3.9l-.3.9-3.6,2.3.2.5,3.4,1.9v12.5C129.7,3563.6,132.9,3568.1,136.1,3569.3Z"/>
      </g>
      <polygon class="g" points="194.6 3581.4 181 3573.6 194.6 3565.8 194.6 3581.4"/>
    </g>
    <g>
      <g>
        <path class="f" d="M183.8,3634.3c-4.2-1.5-8.1-7.1-8.1-11.6v-11l-2.9-1.6-1.2-3.3,4.5-2.9a8.1,8.1,0,0,1,7.8-5.7,8.4,8.4,0,0,1,8.2,8.2c0,4.2,4.3,8.8,4.3,8.8l34.5,20.2S188.2,3635.9,183.8,3634.3Z"/>
        <path class="g" d="M216.2,3638c-13.2,0-30.2-.3-33.2-1.4h0c-5.2-1.8-9.8-8.3-9.8-13.9v-9.5l-2.4-1.3-2.3-6.1,5.5-3.5a10.7,10.7,0,0,1,9.9-6.6,10.8,10.8,0,0,1,10.7,10.7c0,2.4,2.2,5.6,3.4,6.8l41.9,24.6H216.2Zm-31.6-6.1c2.3.8,19.4,1.1,37.2,1l-27-15.7-.2-.3c-.5-.5-5-5.4-5-10.5a5.9,5.9,0,0,0-5.7-5.7,5.6,5.6,0,0,0-5.4,4l-.3.8-3.6,2.3.2.6,3.4,1.8v12.5C178.2,3626.2,181.4,3630.8,184.6,3631.9Z"/>
      </g>
      <polygon class="g" points="243.1 3644.1 229.5 3636.3 243.1 3628.4 243.1 3644.1"/>
    </g>
    <circle class="g" cx="89.9" cy="3577.8" r="2.5"/>
    <circle class="g" cx="135.4" cy="3543.2" r="2.5"/>
    <circle class="g" cx="184" cy="3606.8" r="2.5"/>
  </g>
</svg>
