<svg id="Réteg_1" data-name="Réteg 1" xmlns="http://www.w3.org/2000/svg" viewBox="0 0 1183.6 691.9">
  <defs>
    <style>
      .cls-1 {
        fill: #abdeeb;
        opacity: 0.2;
      }

      .cls-2 {
        font-size: 24px;
      }

      .cls-2, .cls-4, .cls-6 {
        fill: #f96400;
      }

      .cls-2, .cls-6 {
        font-family: Montserrat-Black, Montserrat;
        font-weight: 800;
      }

      .cls-3 {
        fill: none;
        stroke: #fff;
        stroke-miterlimit: 10;
        stroke-width: 4px;
      }

      .cls-5 {
        fill: #ff5100;
      }

      .cls-6 {
        font-size: 13px;
        letter-spacing: 0.04em;
      }
    </style>
  </defs>
  <path class="cls-1" d="M140.5,256.6h-.2l-.5-.4v1.1l.3.8.3.3h.5l.2-.6.4-.3.4.3.3-.4.6-.7.3-.7h-.4l-.4.4h-.3l-.2-.4-.2.6-.2.2-.4.2-.2.3v-.3Zm-1.5,1.9-.3-.4-.8-.9-.9.7h-.2l-.3-.2v1.1h.4l.3.7h.5l-.2.6h-.7l-.4.4.4.3.9-.2.9-.6v-.6l.3-.3Zm-15.3-30.4.5-.4.3-.4v-.4l-1.1.4-1.1,1,.7-.3h.5Zm645,226.7-.9-.3-.8-.4h-.4l-.2-.5-.3.5h.2l-.2.7v-.2l-.3.3v.4l.4.2.5.7h.3l.5.3h1l.3-.7v-.9ZM134.4,250.5l1.6-.2V250l-.3-.7v-.4l1.3-.8.5-.5,1-.3.2-.4-.6-.4-3.1,2-1,1.2Zm8.1,18.4,1.3-1.3h.2l.5.4,4.7-.2v-.8l-2.1-.9-3.5.7-.3-.4H143l-.2.4v.6l-.6,1.2ZM561.1,556.7l-.5,1.2.3.4,5.4-5.6.2-.6-1.1.8Zm-4.7,5.4-.7.6.3.6h.7l2.2-2.1-.2-.4Zm-25.8-4.2-.7,2.2.4.5.7-1.7v-1.6Zm23.6,5.8-.8.2-.5.4h3.3l-.5-.5Zm-8.1.7v.3l5.6-.3h-5.5Zm6,.1h0Zm-12.7-1.7-.6,1-3.3.3,7.9.4.2-.2-.5-.7Zm-24.5-2.6.2.3,2.1.8,1-.2-2.2-.4Zm-5-.8-4.7.3v.4l6.3.2-.2-.4Zm10.5,2.2.3.3,7.1,1.1-3.6-1ZM789.6,120.5h0Zm-258.4-70,1.8-.8.4-1.8-.5-.6-1.5-2.9-.8.4-.4,3.3ZM469.1,565l-1.1-.3h-.6l-1.4.6-2.7,2-.4,1.4,3.5-.6h.9l.6.6v1.1l-.5.8-.7.5h.5l1.4-1.5.8-1.9.2-1.5Zm15.6-417.6-.2,1.4.3,1.3.6.8.9.4,1.1-.5h.1l.3-2.1-.7-2.7-.7-1.2-.4-1.3-1.2-1.9-.6.6.3,2.8ZM269.8,581.6l.5-.8v-.3l-1.9-.2-1.7.5-.4,1.9.2,2.1.3,1.3v1.6l.5.8.9-.9,1-1.6.8-1.7v-2ZM832.1,373.8l-1.3-1.3.2-1.3.7-2.1.9-3.7.6-3.8.2-2.7-3.5,3.3-2.9,3.9-.3.7-.8.4-1.6,2.3-.9.5-.2-.4-.4-.9-.4-.8-.7-.5-2.4-.4.7-1.1.7-.7.8-.3h.8v-1.2l-1.1-1.4-6.1.3.2-1.4,2.5-.5h2.7l3-.9.6-.7v-1.6l.4-1.1,1.6-1.8.4-1.3-.6-.7-2.9-.5-5.5.5-11.5-3.2-9.2.5-2.1-2.3,4.8.8,4.6-.5,10.2,1.7,10-1,1.9-.8,3.9-4.5,2-1.3-.6-3-1.6-2.4-3.4-3.1-2.2-1.1-7.7.8-3.7-.9-12.8,2.6-.9-1.9,2.2-.9,6.6-.3,3.5-1.5,1.7-.3,3.8.6,2.6-.7,2.1-1.7.3-3.1-5.7-3.1-1.6-1.9,3.3-1.2,6.8,2.2,2.9-1.5.3-2,.5-1.7.3-1.4-.6-1.2,2.9-1.6.6-.6.2-1.7-.3-3.6v-1.1l1-1.5,1.7-1.5,1.5-2.4.5-4.1-.3-.9-2.2-3.5-.5-.3-1.1.3-.5-.3v-.6l.2-1.2v-1.1l-.2-.9-2.2-.9-2.2,1.1-4.4,4.7-1.1-1.4-.5-1.1-.3-1.4.6-2.2.5-1.6v-1.3l-.5-1.2-1-.5-2.4-.3.2-1.2,1.1-.2.6-1.2.2-1.9-.2-2.3-.8-1.1-1.5-.4-8.7.8-2-.7-15.2-12.7.5,2.1,1.8,2.8.9,1.9-5.3-5.5-2-.8-1.8.9-11.8,12.8-1.9,2.7-.9,1.2-3,2.2-1,.3-.9.7-2.3,3.8-1.2,1.3.9-3,1.3-2.7,1.6-2.1,6.9-6.1,2.2-3.7,4.8-4,2.5-4.5,2.5-1.4,4.4-.7-1.2-2-4.3-4-1.5-1.6-.3-.5-.2-.8-.3-1.7v-1.6l2.3-1.6,4.5-7.2-2-3.1-3.3.3-6.4,2.3-17.1,1.9-6.5,2.5-2.9.3-2.5-1.7,1.4-3.2,2.9-3.8,1.7-3.7-4.3,4.2-2.3,1.3-2.3-.2,4.5-3.6,1.9-2.5.4-3.3,2.1-1.9,6.3-3.3,6-5.5,1-.6.5-1.3,2.4-4.3.3-.8.2-2V204l.6-.8,1.1-.8.3-.9.2-2v-4.3l.2-2.2-.4-.7-1-.4-1-.9v-2.3l.3-4.3-.6-2.9-1.3-2-1.6-1.2-4-.2-7.2,4.8-3.6-.3-4.7-3.1-8.6-1.7-1.3-1.4,1.1-.6,1.6-1.2.8-.5.2-3.7-.7-1.6-4.5-1-1.1-.6-2-2.2,2.1-4,2.3-1.5,4.8.4,1.3-.4,8.5-6,.8-1.3,1.5-3,.5-2.1-.3-1.2V145l-1.1-3.6-.3-.4-.2-1.6-.8-1.2-1.7-1,2.3-3,2.8-1.6,7.3-.7,6.8-3.8,14.5-4,4.3-3.5h-15l-1.6-1-2.6-3-1.7-.8-6.8.2-2.2,1.1-3.5,2.6-1.8,2.2-.9,2.8-1.3,2.2-5.9,2.7-.6,1.3-.4,1.7-.6,1.4-5.7,1.1-9.4-1.5-2.4,1-.8,1.8v2.7l-.4,3.9-.8,3.6-1.1,2.9-1.3,1.9-1.5.8.2.8v.4l.7.4-2.1,1.3-1.1-1.9-1.1-2.8-2.2-2.3-1.9-3-2-1.3-.6-1.3-.2-1.7.2-2-.9.7-.6.3h-.5l-.5-1.4-.3-1-.8-.4-2.9.8-5.5-1.1-1-1.3,1-2.5.7-2v-1.4l-2.3-1.5-.9-1.3-.8-.7-1.1.9L694,124l2.6-1.5,2.2-2.2,4.2-5.6-.7-5.4v-1.2l.5-1.7-.5-1.8-1-1.5-1.3-.7-7.3-1.2.2-.9.6-2.1.4-.8-1.5.4-2.9-1.1-2.9.2-1-.5,1-1.5-.3-.6-.5-1.7-.3-.6,1.9-1.2V89.6h-1l.9-2.9,1.2-1L690,85l1.4-1.5L688,81.4l-5.4-7.5-3.8.9-1,.4-4-2.6-2.1-.4-1.9.6-.8.8-1.2,3.6-1,.9-.9-.5-.2-2.3v-.5L664.6,76l-1.1,1.7-1,1.2-.3,1.4h-.4l-1.6.6h-1.5l-1.2-1.3.5-.3,1.3-.9-1.3-.5-.7-1.3-.6-1.7-1-1.2-.7.2-2.5,1.6-1.4.3v4l-.7-.8-.4-1.4V75.7l.6-2.1.2-1.5-1.2-.3-2.3.6-1.1.7-.8,1.8-.6,1.8-.3.8-.9-.4V75.9l.2-1.5-.3-1.2h-1.7l-1.9,2.1-1.1,2.6,1.7,2.8.6,6.4,1,2-.2,1.4-1.6-.3.3,2.5.2.9.5.6-.4.6-.7,1.4-.4.5h1.1l-1.1,3.3.2,1.6,1.9,2.1v1l-.2,1.8-.2,1.6.3.8.5.2.4.5.2.6.8,3.1.5,1.5.3,1.6-.3,2.9-.5,1.7-.7,1.7-1,1.5-.4.9-.2,1.1-1.5,1.1-1.5,1.7-1.1,2.3-.8,2.8.3,2.2,1.1,2.4,2.2,3.2-.2,1.4-2-.6-2.2-5.1-1.6-2-1.6-.3-7.1,1.6,2.5-2,7.4-2.9-1.8-.2-3.5,1.5-5.5.9-3.8,1.9,1.2,1.7v1.5l-.3,1.8.2,2.6.7,1.5.9,1.6,2.2,2.1-.2,1.2-2.5-1-1.2-3.1-1.1-3.7-1.7-2.4-1,.3-1.2,1.4-2,3.6h-.6l-1-3-.9-.8,1.4-1.2,1.3-.5,1.2-.3,1.2.2-2.7-1.4-10,1.2-3.1,1.7,1,1.3.5.2-1.1.9h-1l-.9-.6-.8-1,.2-1.2h1l.2-1.6.3-1.1-1.7-8.5-1-3.7-1.8-1.8-7.5-2-1.8-2.2-1.2,3.1-5,1.1-2.5,1.9-2,2.4-.6,1.3.8.7.3,1.1-.4,2.2-.8,2.1-1.1.9-2,.5-2.6,1.5-2.3,2.2-1.4,2.5-.5,2.4-.2,2.8-.3,1-.6,1.4-.6.9-1.5,1.2v2.6l-.8,1.8-1.2,1.2-1.1.7-.2,1.2.6,1.3v1.2l-.4,1.4-.6,1.2h-.5l-.5-3.7v-2.1l-.8-1-12.2-1.8,1.6,1.8,7.2.8-1.6,1-1.9.7-1.8.2-1.5-.3.3,2.9.6,2.6.2,2.8-.8,3.5-.7-2.5-1.3-8.2-1.4-4.2-1-2-2.2-2.2-.5-2.7-.4-5.5-.6-2.3-2.2-5.2-.9-1.1-1.4-1-1.9-4-1.1-1h-3.2l-.8-.7-.4-1.4v-3.9l-.4-1.5-3-2.1-8,.9-2.6-2.1.4-.4h.1v-.2l.2-.6-1.1-.6h-3.3l-1-.6-1.6-1.9-.9-.7L499,114l-1.2.2-2.9,5.2-1.8,8.7-.4,8.9,1.3,5.7-.2,1.4h-.6l-.2,1.3.7,1.9.9,4.1,2,1.8.6,2.1v2.5l-1.1,2.6.6,1.5,1.9,3.4.8.9.4-.4.9-1.6.5-.4.3.2.2.4v.7l.4.7,1.1,3.6.3.3.6-.2h.5v.7l-.5,2.5v.6l.9,9.3-.2,3-1,3.3-.5.6-1.5,1-.5.7-.7,2-.2,1.3v1.2l-.2,1.7-.5,1-.5.8-.4,1.3v2.1l.3.9,1.3,1.5.5.7.4,2.4.2,3.4-.5,3.4-1.3,2.2-1.2-.7-.5-2.8v-3.3l.8-2.4-2.9-4.4-1.7-3.6-.6-.6V198l1.2-7.8v-1.5l-.9-3.6v-2.2l1-5.1v-1.6l-.6-2.3-.3-.8-.7-.3h-1.4l-.6-.4-.2-.5V171l-.3-2.6v-2.3l-.3-2-1.5-1.7-.8-3.3-.6-1.5-.7-.8-5.5-1.7-3.1-2.8-5.3-2.3v-1.5l1.1-3.2,2.3-5.4-.4-3V133l-.2-3.4-1-1.7-.8-.8-.8-1.4-.8-.9-1.1.6-.9.9-1.2.6h-1.1l-.9-.3,2.9-4.4,1.5-2.9-.6-1.4-1.3-1.4-1.2-2.7-1.4-2.6-2.2-.9-6.4,4.9H458l.7-2.9,1.9-3.8,1-2.7-3.5-2.5-2.1-.7-1.5.8.2.8v2l-2.3,3.7-1.3,1.5-1.6.4,1.6-6-2.2-1.6-7.3,1.5-3,1.9-1,1.1-.8,1.9-1.6,4.3-.8,1.2-.2,1.2.3.3.7.9.3.4-.2,1.1h-.5V122l.3,1.4.5,1.1.8,1.2-1.5-.7-2.1-3.2-1.5-.8.6-1.8.4-.7-.7-.4h-.7l-.7.4-.7.6-.4,3.2-1.8-.7-3.1-3.3H413.7l-4.7,1.7-1.6,1.5-1,1.5-.5.4v4.7l.3,2,.6,1.6.5,1.3-1.4,1.9-1.7,1.3-1.7.7h-1.4l-1.1.5-.9,1.4-.5,1.7-.3,1.4L402,148v1.3l1.1,6.7.5,4.8-.3,4.5-.8,4.7-1.3,5.3-1.7,5.2-1.1,2.5-1,1-1.6.7-.6-.2v-1.6l.4-.8.6-.5.8-.2-2.2-.3-.8-.4-.5-.7-.8-1.7-.2-.3-2.3-.7-.8,1.4-1.1,3.8-1.2-2.5-3.8-1.9-1.3-2.6v-2.2l.4-5v-2.4l-.4-1.4-1-4v-4l-.3-1.4-.3-.4h-1l-.4-.5-.7-1.7-.7-.4h-1l-2.8-2.5-4-1.3-1.1-1.6.6-3.3-1.1-2.6-1.6-2.4-1-2.7.4-.5.6-1.4.4-.6-.8-.9-.2-1.2v-1.5l-.2-1.7-2.2-6.7-.7-2.9-.3-3.1-.3-1.5-.7-.9.8-1.3-1.6-1.4-1.2-1.6-.7-2.5.2-4.1-1.8,1.3-1.7-.5-3.6-2-1.3.5-3.4,3.1-1.5.6-2.7-.8h-1l-.8.6-1.7,1.4-.8.2-3.1-.9h-1.9l-1.7,1.1.6,2.5-.9,3-1.5,2.7-1.5,1.7,1.1,1.8.8,2.1.5,2.6v3.2l-.5,6.5.3,1.9,1.8,7,1,6.4v5.5l-2.3,1.6-.2,1.4,1.5,2.2,1.4,3.8.8,4.7-.2,4.9L334,175l-.9,2.5-1,1.8-1.1.7-1.2.9-.4,2.7.7,2.4,1.6.7-1.6.2-1.5-.2-.7.5-.6,1.3-.6,3-.5,1.3-1.5,2-3,3.3-1.2,2.3.4,3-.8,2-1.1,2.1v3l-.8-2.9,1.6-8.1-.7-1.9-1.1.3-2.4,1.4-1.1.2-2.4-.2-2.8.5,1,1.5,1.2.4,2.6.3.8.6.7,2.7.9.9-1.5,3.8-.8,2.8-1,1.8-1.9.9h-1l-1-.3-.8-.6-.8-.8-.7-1.3-.2-1.2v-1.2l-.2-1.6-.4-.5-1.3-1.1h-.3v-1l.4-1.2.6-1.4v-4l-.5-1.3-1.6-1.7-1.2,1.2-.6,2.9.4,3.6-1.9.3-.5-2,.5-3.2,1.4-3-.2-2.8.7-3.7,1.7-7.3.3-.5h.3l.2-.3v-1.6l-.3-.3h-.9l-.3-.2-1.1-2.3-.7-.7h-1l-.6,1.8-1.1.6h-1.5l-1.6.6-5.7,5.6-9.7,5.4-3.1,4.2-.4,1.1-1.7,5.2-.3.9-1.2,1.6-.6.9-.7,2.7-.5,3-.5,4.3v5.6l.3,6.2,1,5.9,1.3,4.7-.8,1.2-.9-1.1-2.4-1.3-.4-1.4-.2-1.3-1.5-4.9-1.1-8.1-1.1-3.6-2.1-1.7-1.3,2.5-.7,5.8-.5,14.2-.4,2.5-1,2.7-.7,1-1,1-.6,1v1.7l-.5.5-1.5,1.8.3,1.7.9,3,.4,1.9v1.4l-.3,3,.4,4.6-.9,2.4-1.5.9-1-1.3v-1.1l1.1-3.1-.2-3.7-1-3.3-1.2-1.8.2-.5v-.2h.1l.4-.3-.8-2-1.5-10.1.3-1.8,1-3.7.4-2.8.2-4.1.4-2.3.5-1.9v-1.4l-1-.8,1-3-.5-2-2.4-3.2-1.6-4-1-1.1-1.6-.7-1.7.3-3.5,2.2-8.1,1.8.2-1.2,3.9-.9,5.1-4.1,4.9-5.8,2.7-6.5-.4-8.2-4.2.3-5.3,3.5-4,1.5.2-1.3,1.8-1.4,4.9-5.7,1.2-1.8-.7-2.6-2-1.5-12.8-1.7-1.2-1.5-.3-.6-.7-.9-.6-1.5v-2.6l-.2-1-.5-1.1-1-1.4,1.2-1.4.7-1.1.5-1.5v-2.2l-.2-.3-1.2-3.4v-.5l-1.1-1.3-3.1-3-1.4-.5,2.4-1,2.5.4,2.1,1.6,1.5,3v1.5l.5,2.8,1,2.7,1.3,1.3.2.6,1,2.6.5,1,10.3,2.1,2.6-1.3,7.4-6.9-1-1.4-3.6-3.2-1.2-.6h-3l-1.6-.3.2-1.4,8.3-1.7,2.5-1.7,1.8-2.3,5.2-8.3.2-1.3-3.2-3.2,2.5-1,1.3-2.3.3-3.2-.6-4.1-1.7-2-8.6,1.1v-1.3l3.7-2,1.2-1.3-2-1.7-7.4.2-4.7,1.7h-2.2l-1-2.8,1.2.2,8.4-1.1,2.4-1.4,10.9.7-.3-4.2-1-2.4-1.7-1.3-2.1-.9-8.6,1-1.7-1.9-1-2.8-.2-1.4.8-1.8.7-.2,1.9-1.1,1.1-1.2-1.4-.9-.2-.7V91l-.5-.7-3.4-.3-2.9.9-1.1,1,.9,3.9v1.5l-.5,3.2-.6.9-1.2,1-1.4.6-1,.2.9-2,1.3-1.9,1.1-2.3.2-2.6-.8-1.6h-1.3l-1.5.7h-1.3l-.9-1.2-.3-1.3.2-3.7.4-3.1h0v-1l-.2-2V80.2l1.3-.8.3-2.3-.4-2.4-1.2-1.1.6-1.7.4-.7-4.4-3.3h-.9l-1.7.8-.7-.2-.5-.5-.8-1.6-3.1-3.6-1.1-.4-1.2.3-1.2.8-1.1.5-.9-.9,5.1-3.1,1-1.2L220.3,53l-.4-.8-.6-.7h-.7l-.9,1.2-1.2-.8-5.6-.3.8-2.7-.4-1.5-1.3.2-1.6,2.2-.7,1.3-.7-.6-.4-1.5-.5-.9-1.2-.2-1.3.4-1.4.7-1.3,1-.7-1.4.2-1.4,1.4-1.2V44.4l-.5-1.4-.2-1,.3-2,.4-1.7.7-.6,1.4.6.2-1.3L201,35.7l-.8-1.3,1.4-1.7-1.4-3.9-5.7-4.4-.9-3V16.8l-1.2-4.1-2.1-2.8-2.3-.7.3,1.8,1.8,1.7.3,2-.8,2.3h-1.2l-4.9-3.4-1.9-3.3L179.5,8l-3.1.6v2.7l-2,1-3.5,3h-2l-1.4-1.3-2.2-3.8L162,8.4l-2.3-3.1-1.3-.8-7.6-1.2,3.3,3.9,1.1.8,1.1,1.1v2l-.9,1.4-1.6-.8v-1l-.3-2.4-.4-.9-.5-.2h-8.6l.4,1,.2,1,.2,2.3L142.5,10l-2-2.6-2.2-1.5-2.6,1.6,1.1,3.2,1.8,3,2.1,2.2,2.2.8-2.6,5.7H137l-3.5-2-3-.3-1.3,1.6.3,1.3,1,1.5,1.7,3.1,2.9,2.2,11.6,5.2,2.2-1.9.6-.3,3.9-5,1.7-1.5,1.4-1,2.7-.6L159,26l-1.3,1.3-1.5,2.4-.9,2.4.8,1.2h3.1l1.6-.5,7.1-5.7,2.8-1.3,3.5-.2-4,1-1.2,1-.6,1.1-.9,3.8-.6,1.3-1.8,1.7-.9,1.2-.2,2,.6.6,3.4,1.4,4.7.2,4.2-1.5,3.5-2.8,1-.2,1.6,1.2-.2,1.4-1.3-.2-1.3.5-1.3,1-1.1,1.3-1.4,1.1h-1.3l-.3.2,1.3,1.9,2.9,2.1h10.6l-2,1.2-3.9-.2L179.8,50l-2,.2-3.7-.6.4,2.6V53l.4.8-1.2,1-1-.5-1.7-2.4-.2-.8v-1l-.3-.8-.8-.5-2.1-.3-7.7-3.9-2.4-.5-11.9,1.4-3.9,1.7,1.8,8.9,4.5,6.6,17,10.8,3.5,5.1,5.9,4.2,1.5-.2,1.7-1.2,4.1-1.4,1.5.2-1.3,2.4-1.4.5h-1.6l-1.5.5L176,85.3l-.8,2-.7,2.2-1.2,2.3,1.5.9,1.4,2.2,1,2.9.6,2.7.2,3.5v4.2l.3,3.8,1.2,2-.2,1.3-2.7,1.6-4.7,9.9-3.2,1.2.2-1.1,1.1-2,2.4-3.3.9-2,1.6-6.5.2-1.2-.6-.5-.7,1.4-.7,1.8-.2,1-.9-1.1.3-1.2.7-1.4.2-1.5-.3-1.6h-.5l-.6.4-.5-.3-.8-2.6-.4-2.8-.8-1.9h-1.7l-.2,1.5-1.1,3.6L159,119.4l-3,6.9h-1l-.3-1.6,1.3-3.3,5.7-10.4-.2-.5v-.7l.7-.9.8-1.7.6-2.1,1-3.8v-.9l-.3-.8-2-5.7-2.4-3.6-.5-1.1-.2-1.6.2-2.6-.4-.7-5.1-1.3-.4.2-.9,1.4-1.3,3-1.4,4.4-1,4.8-.6,4.2-4,8.7V107l1.5-4.2,1.2-5.2-.3-5.3-.9.5-1.5,2.7L142,100l-1.5,1.5-1.6.5-3.1-.3,2.8-1.3,2.7-3.2,2.6-4.1,2-4.2-1-1.4-1.4.9L142,90l-1.2.9.2-.6.5-.8-.4-4.5-.4-1.5-.7-.7-1,.3-.7,1.3-.6,1.7-.6,1.4-2,2.3-5,4.5L128,96.7h-.5l1.1-1.8,4.4-6,.4-.4,1.7-2.1.7-1.3.2-1.9V80.1l.4-2.8V76.2l-1-2.2-.7-2.5-.6-1.3-.8-.6-1.6.5-4.7,5.3V71.3l.9-2.8-.8-3.6-1.5-3.2-1.4-1.5-2.2-.8-6.9-7L103.9,47l-2,.6-.5,2.5L100,51l-3.2-.4-1.3.4L94,52.3l-1.3,1.5-1,1.3-.3,1.5L93,58.2l7.4,1,1.5,1.3,2.2,5.5,1.6,1.9-5.8-6.6-5-1.7-6.7-.4-2.8,1.6,2,4.1,3.7,4.8,1.8,3.6.8.8,1.7.6L98.7,77l1.7.8,1.3,1.4,1.5,6.2,1,2.3v1.1l-1.5-.8-1.1-1.9-.5-2.7v-3l-3,1.1-3.9-1.7L81.7,69.1,78,67.6l-3.4.7-1.5,2-1,3-.9,5.8.5,1.6L74,85.6l3.1,4,1.5.9.8,1.9,1.8,1.5,3.3,6.4,1.5,1.6,7.6,3.2,3.1,3.7,1.8,1.6,6.2,1.6,1.6,2.8,6,3.1-2.7.8-2.8-1.7-4.9-4.9-3.1-.5L90,106.3l-5.1.7-1.4-.5-1.2-1.3-2-3.4L79,100.6l-5.4-2.1-3.9-3.3L68.1,95l-3.9,3.3-1.1,5.6.6,6.3,1.7,5.5,3.7,5.7.7,2.1.8.9,4.2-.8,2.3,2.9,3.8,2.4,20.5,3.7,3.8-2.4,2.6-.8H112l-1.3,1.2-4,1.9-.2,1.2h.6l.5.4.8,1.1-1.8,1.2-1.6-.5-3.1-1.7h-1.6L98,136H91.6l-1-1.3-1-.6-5,1.5-1,.8.4,2.2,1.1,2.5.8,1.4,2.7,2.4,3.9,2,9.3.6-1.3,1H99.3l-1.2-.4H96.8L93,149.9H91.6l.3,1.8.4.4.6.5-.2,1.4-2,.3-3.9-1.7L85.6,154l-.9-1.8-.2-1-3.9,3.9-1.9,1.2-1.3-1,1.1-2.7,1.1-1.8.7-2-.3-3.4-.4-1.1-1.8-1.8-.9-3-.6-1.1L46.9,115.1l-3.2-.7-3.8,2.4.6,2.3-.3,2.2-.4,2.2-.2,2.5,2.1,6.9,2.1,4.3,1.5,1.9,3.3,1.9,3.5,3.3,3.2,1.8,1.8,1.9,1.8,2.8,1,3.1-2.3-1.2-6.8-5.6-11.2-4.2,1,2.9,1.8,3.7,1.6,3.9,3.1,4.9,1.4,1,.8,2.1.7,2.3,1.1,1.9,1.3,1,1.7.8,3.7.2-4.7,1.7-2.3-.2-2.1-1.5-1-2-.9-2.2-.9-2-5.2-2.3L38,156.7l-3.3-6-1.3-1-2.2-.6-6.7-5.6-1.9-.7-1.1.2-1.6,1.6-2.6,1.2-.8,2.6-.5,3.3-.7,2.8-1.7,1.4-4.9,2.2-1.2,1.1L6.4,161l-2,1.4L.8,163.9,2,167.3l2.7.9,22.1,1.1,11,6.8,1.4,3,1.2-2.3h1.7l1.2,1.9-.7,3.3-.6-.9-.5-.5-1.4-.3.8,1.2.6,1.3v1.5l-.6,1.4-.2,1.3,2.9,2.6,3.3,1,14.7-1.8,3.7-4.5.7-.5h.6l.4-.7.5-2.2,2.1,1.7,10.7-.5,4.4-2.6,2.3-.6-.3-.9-.2-.3-.2-.2.9-.7.4-.2h1l.5,1.7.7,1.6,1.1.8,1.2.4,2,1.2,5,1.4,1.2-.2,1.3-.8,2.2-2.7,1.1-.9.2-1.3-1-2.6.7-3.9,1.8-3.5,2.3-.9-.2,1.1-.6,2.7,1.9,2.6,3.9,2.7,2.4-.8,4.7-.4,1.9-1.9.6-1.7,1.3-5.7.4-1.3.6.9.2,1.9v2.4l.2,2.1,1.4,1.3,2.2-1.4,2.1-3.2,1.1-4.1,2.4,2.2,1,1.5.5,2.2-2.2.7-4.2,4.1-2.1,1.6-.2,1.4,1.9.4h.7l-.3,1.8.8.3,2.7-.5.9.6.8.9.3,1.3-.8,1.4v1.2l1.3.3,1.3,1,1.2.5,1.3-1,.2-14.4-.4-2.5V164l.6-1,.5-.3,1.2.2,1.8,1.8h.7l.5-.5.4-.2.6,1.1-2.2,3.2-1.1,3-.2,3,.9,6.2.4,1.5.4.9,1,.2.9-.5.8-1.4,1.3-4.7.6.4.9,3.7.9,2h.9l1-1.1,2.1-3,.6-1.4.2-1.5-.6-4.2.2-1.9.4-2.1v-.9l1.2-1.6.6,2.4.5,6.9.5,3.2-.4,2.3-.6,2.2-.5,3,.3,3.4,1.1.7,4.5-1,1.3-1.3.6-1.5-.7-1.6.2-1.4,1.4.4.7,1.2.9.9,1.6-.3,2.4-2.4,1.4-1,1.5.2-.2,1.3-1.2,1.2-3.6,1.8-.2,1.3,5.4.4,2.7-.7,3-1.8,6.9-7.3,2.3-.3-1.8,1.1-1,.8-.9,1.2-.4,1.6-.4,2.3-.5,1.8-1,.8-1.9.3-4,1.9-8.7.5-1.8,1-2.1,2.7.3,1.7,2.9,2.1,3.8,4.9,1.5,3.6,1.3.8h2.9l.8-.6,1-1.7.7-1.6.4-.8h.7l.9-.6,1.6-1.5,1.5-1.8,1-2.2.7-2.6v-3.1l.7,1.6.7,4.6.4,1.8.7.8,1.1.3.8-.6v-2.7l1.1.3h1.1l1.1-.4,1.1-.6v2.9l.8,2.2,2.3,3-1.9,1.9-2,2.7,1.5.4,4.7-.7,5.3,2.1,2.7.4,7.6-1.3-5.2,2.1L201,212.1l-5.1,2.1.2.9.2,2.9-1.1-.3-1.6-2.4-1.1-.3-.2.9h.4l.2.3-2.1,1.6-5.3,1.8-3.3,3-8.1,4.5-8.9,1.1-2.3,1.2-3,4.1-.8.5-2.7-.9-1.2.3-.3,3.1-1.6,1.3-3.8,1.2-3.2,3-1.7,2.3-1.2,2.6,3.9-.9,1.9.5,1.5,1.6-.2,1.4-1.5-.2-.5-.5-.4-1-2,1.2-2.3.3-1.3.6,1.2,2,1.8,1.3h7.2l1.2-.6h.4l.8.5,4.8,5.4,21,7.8,4.1-1.1,13.1-8,.2-1.4h-.5l.2-1.2,2.7-2.1,3.5.2,2,2.9-1.3,6.2-4.7,8.8-1.3,2-1.5,1.1-1.3.3-1,.6-1.2,2.3,2.3.7,1.1,2.1-.4,2.2-2.3,1.4h-8.7l-1.8-1.7-1.6,1.2-1.6-.9-1.4-1.5-1.4-.9-5.8-.9-.8.3-1.5,1.5-.8.3-6.3-4.6-10-3.7-6.6.4-6.3-1.3-1.4.5-.6,2.4-1.5-.2-1.3.7-2.6,2.4,1.4,3.7.7,1.3.8.7v1.1l-1.2-.7-2.8-3.8-2.4-1.6-.5-1.5v-3.6l-1.3.8-1.5.4h-1.2l-.9-.5,1-1,2.5-.9,1.2-1.4v-.9l.3-1.5-1.1-1-1.3-.6.6-.4.7-.8-3.1.3-6.7,5-3.4.3-.3,1.4h5.7l1.1,1.1-5,2.5-4.8.4-1.9.9-1.5,1.6-1.2-3.4-1.8-2.1h-2.2l-2.6,2.5-.5,1-.9,2.2-.6,1-.7.3H95.9l-.6.3-1.1,1.7-.6,1.8-.3,2.3v2.8L90,281.8l.8-1.6.8-1,.8-.6h.9v-2.6l2.4-1.3,1.2-1.3.8-1.9-6-2H88.2l-2.6,2.5-.6,2.5v2.6l.2,2.4v2l-.8,1.8-1.4,1.4-1.5.5-1-1.4-1.7,1.6-.2-1.4.4-2.5V280l-.9-.3-.8,1.2-.8.8-.8-.9.9-2.9-.9-1.1-3.2-.3.2.8v1.2l.3.6-.2,1.3L66.5,278l-3.4.7-3.5,4-.9.6-3.1-.7-.9.8L53,285.5l-.9.3L43.9,283l-5.5-5.1-1.6-.4-8.6,1-1.6.7-3.3,2.9-1.7.5-1.2-1.9-.7,1.3.9,8,.7,3.2.9,3,2.5,5.8.2,1.8-.2,3,.6,1,1.1.6.9,1.9,5,4.1h1.6l3.6-1.4h1.8l5.6.7,2.4-1.4,2.1-4,.9-3.5,2.8-2.6,3.1-1.2,1.2.7h-1l-.9.3-1,.6,8.5,4.2h1l.8-.4,1-.7.6-.7,1.8-2.1v-.5l7.7-.6,4.2,1,3.6,5.5,10.5,2.4,9,1.5,9.5,2.3h-.5l2.2.7,3,3.7,2,.5.2-1.2-3.6-3.1-1-1.6,8.1,1.3.6.7.7,1.5.5,1.5.2,1.3-.7.5h-1l-1.8-.6,1.6,1.6,7.3-.2-1.4-1.3-.6-.3.3-1.3,1.3-.3,2.7-2.2,1.2-.4,4.1,2,.2-1.3.9-.8h.8l.5.7.2,1.8.8-1.5.8-1.1.7-.6h.9l-1,2-2,3.3-.9,1.7,1.6.3-1.4,2.2,4.9.5,2.2,1.1,1.3,2.3-1.2,1.5-.5.4-.7.2.4,1.3-1.1,1.7-1.1,1.2-1.7,1.3-2.6,2.8-1.1.5,1.2,1.9,2.4-1.2,2.7-2.1,2.4-1.1h2.5l2.7-1,5.4-3.4-.2,1.2-2.6,2.5-9.6,3-.2,1.3.3.3.7,1.1-1.2.5-1.1.7-1,1.2-.8,2,1.7.2-2.2,1.3-1.8-1.6-1.7-2.3-1.8-1.2.6,1.7.7,1.8,1,1.5.8.6.3.8.6,1.5.7,1.5,1.2.5-.2,1.2-1.3,1.6-.8,2.7.2,3,1,2.5,1.7.3,2.2-.6,3.9-2.1-.2,1.1-1,1.7-.4.5.8.2.6.3.5.4.5.8-.8.9-.4.2.5,2.1-.7,2.7-1.4,2.6-1.4,2.1.8-.2.6-.3.7-.6.8-.8.3,2.9.7,2.4,1.2,1.8,1.1.8h.6l.8-.3.8-.5.4-.6.5-.6,2.8.4.8-.9.3-1.1.2-1.2.5-1.6,2.4-3.1.4-.7.4-2.8.7-2.6,1.1-1.9,1.6-.3-1.8,3.8-.4,1.7.6,1.9,1.1.6,1.3-.5,2.2-2,5-3.1,2.2-.2,2.2,1.1v-2.5l1.4-.8,4.2-1,3.7-2.5.8-.4,1.1-.8,1.2-4.1.8-.8.9-.3,3.7-2.9-.7,1.6-1,1.3-2.3,1.6-.2,1.2h2l5.6-3.8,1.9.2,5.7,2.3-.2,1.2-5.9-1.9h-1.3l-1.7,1.3-4.8,2-.2,1.4,8,1.2-.2,1.1-3.4.8,1.2,1.2,1.4,3,.8,1.4,1.3.6h2.7l1.1,1.3-6.3-1.4-.7-1.5-.7-2-2-.4-1.5-.7.8-3.3-3.1-.7h-1l-.8.4-1.5,1.4-2.8.7-3.5,3.6-1.7,1.1-.2,1.2,1.1-.2.9.5.6,1.1v1.5l-4.6-.2-9.3,3-2.2,1.6-.4,1.9-1.4,2.3-.6,1.4-.9,3-.4-.2-.5-.5h-.6l-1,2.6-.4,2.5-.5,2-1.3,1.5,1,3.2,1,1.2,1.2-.2,1.6-.9,2.2-.4,6.7,1.9-1.6.7-3.5.5-1.7,1.3-1.4-1.3-1.8.8-3.1,3.3-3.6,2.4-3.4,1.4-.2,1.3,6.4,3.7,3.6,1.1,3.2-2.2,1.3-1.2,3.9-1.9,1.3-.3h.7l1.5-.2.7-.4.9-.9.5-1,.4-.9.4-.7,6.6-4.4,6.7-.5,13.8,3.1h-.4l.2.2h.3v.8l-1.4.7-.7.2h-.7l-.2,1,1.7,1.2,3.8-1.4-2.7,3.3h-1.9L193,403.3h-1.9l-1.8.5-3.4,2.1h.6l.6.8,1.4.9-1.4-.2-3.4-1.1-1.7.2-1.5.5-.9,1-1.9,3.4-2.1,2.7-2.7,2.2-5.3,2.7v2.6l-1,1.3-2.5,1.7,2.8,1,.7-.7.7-.4.8-.2,2.2.3,1.4.6.7,1.5-1,2.9,1.8-.6h2.4l2.2.7,1.4,1.2-2.6.9-1.4.8-.8,2.1.5,1.3h1.4l3-1.2-2.2,3.2-2.6-.3-2.6-1.3-2.1.5,1.3,1.4-.7.4-.7.4-1.1,1.3.9,1,.7.5.7.2h.9l-1.3,1.1h-1.3l-2.2-1.7-.4-.7-.2-.8-.5-.8-11.2-3.9-2.6,1.5,2.6.6L158,439l4.1,5.2h-.6l-1.2.8,1.5.2-.2,1.4-1.4.4h-1.6l-1.5-.5-1.2-.9,1.7-1h.6l-1.3-1-2.1-.2-2.2,1.2-1.2,2.6,1.4-.6,2,.9,1.6,1.6,1.2,1.5-.2,1.1-.6.7-.5.3-.5-.3-.5-1-2.3,2.7-2.4,1.1-6.5.2-4.3,2.7-2.1.4-1-.5L135,456l-.9-.5h-.9l-3.2,1.8h-3.7l-1.3.4-1.1.7-1.2,1.1L122,461l.5,1.4-1.3,1.1-1.9.2-7.5-1.6-1.7-.8-.9-2.2,1.1.2-.3-4.7-1.3-4.5-1.6-3.5-2.4-2.3-1.9-3-1-.6-1,.6-1,1.1-.7,1.3v1.4l-.3,1.6-.5,3.7-.4,2-.5,1.4L95.6,457v3.3l1,2.4,1.4,1.6,1.4.6,1.9-1h.8v1.9l-.6.5-3.3-.5-.9,1.2-2.6,6.1-1.4,1.5.6,1.6.7.8.5,1v2l-.4,1.9-.6,1-.8,1.1-.8,1.7.8.7.8,2.5.9.6.6-.2.6-.6.5-.7.5-.4,1.8-.4,7.3,2h.8l1-.4,1.7-1.1,2.5-.4,3.2-1.5,1.7.3-1.2,1,1.4,1.4,1.7-1.2,1.8-2,1.8-.9,19.9,8,4.1-.7,1.1.2,3.2.4,13.4-2.6,2.4.7,2.2,2.1,2.1,3,2.4,2.4,22.9.5.4-.4.2-.3.2-.3h.4l-.5-3.1,1.6-1.7,2.1-.6,3.7.2,3.3,1,1.5,1.1-.5-2.7-1.8-2-3.5-2.3v-1.1l1.1-.4,2.8-2.2.8-1,.9-.6,4-.5,1.3.5,3.4,2.7,5.7.9-2.5,1.7-3.4.3-5.9-1.4v6l-.6,1.2,1.1,3,1.5,1.9,1.7,1.1,3,3,9.2,5.2,6.2,5.7,2.6,3.7-.2-.7-.4-3,1.9,1.6,2.1-.2,2-1.1,3.5-3.4,1.9-2.6.7-2.3-2-1.2.2-1.1,2.7,1.5.3,4.6-1.6,5.2-3.1,3-.2,1.1,1.9.6,5.7-.6-.2,1.1h-.2l-.6-.2h-.3l-.2,1.2,2.1.4-.2,1.1-2.4-.5h-1.1l-.4,1-1.1-.3-1.6-2.1-.9-.7-4.9-.7,4.7,5,2.4,1.6,2.9,3.5,3.1,2.6.5-.3.9-1.6.5-1.7.2-2,.3-1.6.7-.6,1.9-.3,1.8-1.3,2.5-2.1,4.1-3.9,1.1-1.5.2-1.1v-1.4l.8-.5.7.8v2.4l-.6,1.6-3,3.9,5.3,4.4.9,1.4,1.3,3.5,1,1.8-2.5-.6-3.5-5.2-2.2-1.6h-5.3l-2.6,1-2.5,2.2.5,3,.4.9-.9.8-.3.3.8,4.2,1.8,3.5,4.3,5.4-.6-3.1-1.1-3-2-4.3v-1h2l.7,1.2.3,2.2.8,3.1,1.1,1.8,1.3,1.5,1.2,1.8.7,2.8-2.4-1.5-.2,1.1,1.5,1.5,1.3.6,1.4-.7,1.7-1.8-.3.8-.8,2.6.9.3,1.7,1.1.9.3-1.3,1h-1.3l-1.2-.6-.9-1.1.9,1.6,10.1,11.6,2.7,1.2,5.9.8v-2.4l.4.3.2.2.3.8.3-.3.3-.3.2-.2.3-.2,1,2.4,20,4.5-7.4-2.8v-.9l7.1,2.4,1-.2,1.4-.8,1,.2.8.9v.9l-.7.6h-1.1L314,575l11.7,5.3,8,7.5,6,2.2,3.6,3.7.9.7,9.9,3.8,1.9-1.9,1,1.2,1.2,1,2.8,1.1-.5.6-.4.2h-.9l2.1,1,6.4-.7,13.9,6.8,3.9.8,16.7-1.9,10.4-3.1h16.7l-1.2-.4-1.8-.3-3.1-.7-.2-1.1.2-2.5v-2.4l-.6-1.2-.4-.6-1.2-3.2-.6-1.2.3-.5.4-.4.6-.2-.3-1.3,1.5.7,4.6,4,2.1.5,4.3-.6,2.2.4-.2,1.2-2.4-.2-1.1.7-1.4,1.6-1,.9-2.2.4-1.2,1.1,2,3.9,5-.4,5.6-3.1,8.3-2.4,4.2-3.3,3.5-4.8,2.8-5.5-1.2.8-5.7-.6.5-1.9v-1.2l-.6-.6h-1l1.3-.8,2.1.5.2-1.6,3.1.4-.2.7h-.2l-.3.2,1.8,1.6,2.3-1.4,4.3-5.9-2.2.3-6-1.6-1.2.2-1.8,1.4-1,.2-1.2-.7v-1.3l.6-1.5,1.2-1.3,1.2,1.8,1.4-.3,1.4-2,.9-3,.8-1.9,1.4-1.7,1.6-.7,1.2.8.9-.8.9-.2,1.9.3.2-1.1-1.3-1.5,2,.4,1.8,1.2,1.8.7,2.1-1.1v-2.4l.8-2.3,1.6,2.4,4.6,3.5-.2,1.2-2.2-.2-2.6.6-2.4,1.8-1.4,3.6,11.2-5.5.2-1.2-.2-.7v-1.7l1,1.3,1.1-.3,1.2-1.5.9-2.3.2,1.8-.3,1.8-.7,1.5-1,1.1,7.3-.6,11.1-1.9,10.3-4.5-.2,3.1.8.2,1.3-1.1,1.1-.6,2.5,2.6,1.1.5,5.4,1.1,2.9-.3,1.8-1.6-1.1-1.6-.2-1.9v-2.1l-.7-1.8,1.1-2.1h1.3l1.3.2,1.5-1-.5-1.6.2-1.9.9-4.4.6-.9.7.9.7,1.5.2.7v1.1l-.5,2.4-1.1,4.6h.2v1.9l-.8.4-.3.2-.3.6-.5,1.5.2,1.6-.4,1.7-1.4,3.8h1.5l1.4-.5.6-1.1-.8-1.7.6-1.9.5-2.2.7-4.6.5-1.1.4,1.2.2,2.1v1.6l-1.1,4.4V560l1,.8.7-1,.3-2.3.2-3.2.4-2.6.5-1.5.6-.4,1.2.7.7.9,2.2,4.4,1.2,1.4v.6l-.4,2.4v1.2l.3.6,1-.6.7-1.9.4-2.4v-1.9H548l1.5-.6-.7-.3-.6-.5-.6-.9-.4-1.2,1.1,1.7,1.5.7,10.8-1.3,13-7.8-.8,1.9-1,1.2-1.1.8-1,.4,2.5-.9,4.5-5.2,6.3-3.9,1.3-1.3,2.6-3.7-.9.8-1.1.8-1.2-.3,1.6-2.7,2.4-2.2,4.6-2.5-.9,2.4,1.8-.3,5.1-2.4v-1.1h-1l.2-1.2,1-1.1.9-.5.7.4.5,1.8.8-1.3.9-.8,2.1-1.2,3.1-2.8.8-.3,1.8-.3,5.5-3.5.2-1.1-3.6-.5,3.1-2.1,20.8-2.9,2.9-1.7-1.4-1.3-6.6,1.2,7.6-4.4,2.6-2.6v.9l.3.8.3.9,2.3-1.3,4.9-1,4.3.3,5.2-1,2.2-1.4-2.5-.4-1.1-.5-.9-1.1,1.9-1,4.1,1.8,2.1-.6,1.5-2.4,1.2-2.9v-2.8L666,487l.2-1.3.5,1.1.7.4.7-.2.8-.9-.4-1.6-.8-4.6-.5-2.1-1.4-1-2.5-1.6-1.1-1.3,1.8.9,2.8,1.7,1.2,2,1.4,1.8,1.4,3.7.6,3.9-1.2,2.4v.9l.9,1.1,2,1.2,1,.9v-3.1l-.3-1-.6-1,.2-1.1,1-.7,1,.7.5,2v2.7l.3,1.3,1.1.3,2.6-.2-.2,1.1-2.3,4.6,1.9.4.9-.2,1.1-.7-.8-1.5,1.2-1,.8.3.7.8,1,.4.8-.6,1.9-2.1.8-.4,1.5.8,1.2,1.6,1.9,3.4,1.3,1.5,1.4.9,3.5,1,1.5-.6,2.7-2.6,1.8.3-.4-2.4v-2.6l-.7.7-.9.2h-1.6l-.7-.7-.4-1.4v-1.2l.5-.8,1-.3,1.5-.8,1.4-1.4.7-1.6h.6l-.2,1.2-.5.7-.4.8-.7,2,1.3-2,1.8-1.9,2.1-1.5,4.6-2,1-.8,2.1-2.9.4-.4,1-.2,1.9-1.4.7-.3.3-.4.2-2.4.2-.7.6-.2,8.4,2.7,1.7,1.6-3.7.9-7.2.9-3.7,2,2.2-.5,5.7-1.1,8.1.4.4-.5,1.3-2.6.3-.8.3-1,.4-.5.5-.2.5-.5.2-.7v-1.9l.2-1.2.6-1.5,3.2-4.1.5-1.3.8-3.6.6-1.7,1.2-1.8,8.4-7.5,1.5-1.8-.4-.9-2.6,1.3-5.9,6.4-3.3.3-.5,1.3L740,459l-1.5-1.4-.5-2h-.7l-1.2-2.3-.6-2.5,1.1-1,10.2,1.6,1.6-.8,1.1-1.2.4-1.7-.5-2.1-1.2-1.9-2.8-2.2-1-1.7,4.4-2.5,12.1,6.4-.3-1.3,1.1-1.8-1.2-1.8-3.6-1.9-.8-1.3-1.1-2.6-.6-3,.5-2.2.2-1.3-1.2-.4-3.6-2.7-.9-1.7.3-1.2.9-2,.4-1.8-.9-1-1.8-.2-.8-.5-.6-1.2,5.8,2.2,1,1.1,1.4,4.5,1.6,2.3,1.1,7.4.8,1.4,1.4,1.2,2.6,1.3,17.6-1,3.9-2.7,1.3-.2-.7-2.6-1-2.2-1.8-3.3.2-1.4,1.7-.7.8-.4.6-.8,2.2,1.3,8.7,1.8,2.3-.5.2-1.9-1.2-1.5-7.7-4.7,2.6-1.7,7.5,4.4,1.1-.5,2.3-2.1,1.3-.3,1-.6v-1.6l-.5-1.7-.4-1.2-4.2-4.9-10.6-4.3-4-4,1.5-.4,4.3,2.7h7.8l6.2,4.3,3.6,1.2,3.7-2.2-1.1-2.8-7.3-4.9-3-3.9-.5-1v-1.9l-.7-1.9-.9-1.5-.6-.8-23.8-6.1.2-1.4,15.7,1.9,3.3-2.7-.8-.6-.8-1.2-.6-1.5v-2.1l2.1,1.3,3.6,4.9,3.8,2,2.2,2.1,1.1.7,1.1,1.2.5,2.3.2,2.6.5,1.7,1.4,1.2,5-.2,5.2,2.4,1.3-.5,2.8-2.2,1.2-.4.3-.8-.4-1.9-.9-2.6,1.7-1,3.4-.5,1.8-1.2,1.7-2.3.9-2.1ZM531.8,124.1l.2-.5v-.2l.3-.3.6.2.4-2.1-.9-.3h-2.1l-.9.5-.2,1.6,1.3.2ZM106.2,188.4h.3v-.4h-.5l-.3.3-.7.8v.5l.9-1ZM186,202.6l.4-.5.4-.5.2-.5h-.5l-.6.3-.6,1h.7Zm-41.3-3.2.8-1.5-1.3.6-.4-.3-.2.3-.7.7.3.6Zm-14.9,8.9-.3.2-1.2.5-.2,1.6.8-.8.6-.5Zm-8.4-.7-.8.2-.3.9.9-.4.8-.7Zm8.7,48.8.3-.5h-.3l-.6.2-.4-.3v.9h.4Zm9.7,72.4,1,1.8.9.8.9.4h.5l.2-1.3-.4-.2-1.2.3-1.1-1.6-1.2-2.4-1.3-3v2l.7,1ZM138.6,370l1.1-1.2,1.2-.2.7-1.1h-.3v-.3l-.2-.9-1.1-.2-.9.8-.7.7v.3l.3.2-.2,1.3Zm28.9,67.8.4.6.6.9.8-.5-.5-1-.8-.9v-.8l-.8-.9-.8.6.5.7.4.5Zm72,162.3-.7,1-.4.6.3.7.7.4h.3l.6-.6.2-1.9ZM133.3,251.5l-.4.2-.2.3-.3.3-.5-.2.4,1.3h.5l.3-.2.6-.4.6-.3h.1v-1.1h-1Z"/>
  <g>
    <g>
      <text class="cls-2" transform="translate(949.1 77.7) scale(0.95 1)">KEFLAVÍK</text>
      <text class="cls-2" transform="translate(949.1 118.4) scale(0.95 1)">HVERAGERÐI</text>
      <text class="cls-2" transform="translate(949.1 159.1) scale(0.95 1)">GEYSIR</text>
      <text class="cls-2" transform="translate(949.1 199.9) scale(0.95 1)">GULLFOSS</text>
      <text class="cls-2" transform="translate(949.1 240.6) scale(0.95 1)">SKÓGAFOSS</text>
      <text class="cls-2" transform="translate(949.1 362.8) scale(0.95 1)">SKAFTAFELL</text>
      <text class="cls-2" transform="translate(949.1 403.6) scale(0.95 1)">JÖKULSÁRLÓN</text>
      <text class="cls-2" transform="translate(949.1 444.3) scale(0.95 1)">HÖFN</text>
      <text class="cls-2" transform="translate(949.1 485) scale(0.95 1)">SEYÐISFJÖRÐUR</text>
      <text class="cls-2" transform="translate(949.1 566.5) scale(0.95 1)">MÝVATN</text>
      <text class="cls-2" transform="translate(949.1 607.2) scale(0.95 1)">AKUREYRI</text>
      <text class="cls-2" transform="translate(949.1 648) scale(0.95 1)">REYKJAVÍK</text>
      <text class="cls-2" transform="translate(949.1 688.7) scale(0.95 1)">KEFLAVÍK</text>
      <text class="cls-2" transform="translate(949.1 525.8) scale(0.95 1)">HVERIR</text>
      <text class="cls-2" transform="translate(949.1 281.3) scale(0.95 1)">VÍK Í MÝRDAL</text>
      <text class="cls-2" transform="translate(949.1 322.1) scale(0.95 1)">FJAÐRÁRGLJÚFUR</text>
    </g>
    <g>
      <line class="cls-3" x1="919.7" y1="69.9" x2="919.7" y2="684.2"/>
      <ellipse class="cls-4" cx="919.7" cy="70.2" rx="7.5" ry="7.5"/>
      <ellipse class="cls-4" cx="919.7" cy="110.9" rx="7.5" ry="7.5"/>
      <ellipse class="cls-4" cx="919.7" cy="151.6" rx="7.5" ry="7.5"/>
      <ellipse class="cls-4" cx="919.7" cy="192.4" rx="7.5" ry="7.5"/>
      <ellipse class="cls-4" cx="919.7" cy="233.1" rx="7.5" ry="7.5"/>
      <ellipse class="cls-4" cx="919.7" cy="273.8" rx="7.5" ry="7.5"/>
      <ellipse class="cls-4" cx="919.7" cy="314.6" rx="7.5" ry="7.5"/>
      <ellipse class="cls-4" cx="919.7" cy="355.3" rx="7.5" ry="7.5"/>
      <ellipse class="cls-4" cx="919.7" cy="396.1" rx="7.5" ry="7.5"/>
      <ellipse class="cls-4" cx="919.7" cy="436.8" rx="7.5" ry="7.5"/>
      <ellipse class="cls-4" cx="919.7" cy="477.5" rx="7.5" ry="7.5"/>
      <ellipse class="cls-4" cx="919.7" cy="518.3" rx="7.5" ry="7.5"/>
      <ellipse class="cls-4" cx="919.7" cy="559" rx="7.5" ry="7.5"/>
      <ellipse class="cls-4" cx="919.7" cy="599.7" rx="7.5" ry="7.5"/>
      <ellipse class="cls-4" cx="919.7" cy="640.5" rx="7.5" ry="7.5"/>
      <ellipse class="cls-4" cx="919.7" cy="681.2" rx="7.5" ry="7.5"/>
      <ellipse class="cls-4" cx="919.7" cy="559" rx="7.5" ry="7.5"/>
    </g>
    <g>
      <g>
        <g>
          <path class="cls-3" d="M690.6,422.7c0-1.2-.5-3.5.6-4.4a12.9,12.9,0,0,1,2.1-.5,16,16,0,0,1,2.3-1l1.6-.5c1.3-.2,2.9.4,4.2.1s3.4-2.6,4.7-3.8a20.4,20.4,0,0,0,3.3-4.3,9.7,9.7,0,0,0,1.6-2.8,10.9,10.9,0,0,1,.4-2.5c.6-1.8,2.2-3,3.1-4.7s1.2-3.4,2.1-4.5,6.6-2,9-1.5a21.8,21.8,0,0,0,4.4.4c1.1,0,2.8-.3,3.8.2s2.2,2.7,3.7,1.7.7-3,.8-3.4a38.1,38.1,0,0,0-.1-4.8c0-2.2.4-4.5-.4-6.5s-5.4-3.6-6.5-6.7c-.4-1.3-.4-4.3.5-5.2s2.5-.9,3.4-1.4a8.9,8.9,0,0,1,4.2-1.2,6.9,6.9,0,0,0,3.6-1.8c.2-.2,2.1-1.5,2.1-1.6,1.1-2.6-3.8-3.5-4.8-4.8,1.8-.5,3.5-1.3,5.5-1.4s3,.2,4.4-.1c.8-1.9-1.5-4.3-2.3-5.8a14.9,14.9,0,0,0-1.8-3l-1.4-1.5c-.5-1.2-.2-2.8-.7-4.2s-1.3-4.9-3.1-5.3a4.4,4.4,0,0,1-.2-1c-.8-.2-1.5.1-2.3-.1a7.7,7.7,0,0,1-3.4-1.9c-1-1-1.3-2.5-2.3-3.5s-1.5-.9-2.1-1.5-2.5-2.4-2.6-4.3c0-4.5,1.4-9.6,2-14s2.8-7,4.1-10.4c2.1-5.3,1-12,1-17.6,0-.7-.4-2.2,0-2.8s2.4-1,3.2-3,.8-3.7,1.4-5.4a26.2,26.2,0,0,0,1.1-4,10.9,10.9,0,0,0-.1-1.8c.1-.4.3-.7.7-.7a19.8,19.8,0,0,1,1.1-2,11.8,11.8,0,0,1,2.8-2.2,6.7,6.7,0,0,1,4.5-1.4,16.1,16.1,0,0,0,3.1-.1c1.4-.3,2.3-1.4,3.8-1.2s1,.5,2.1,1.6a18.1,18.1,0,0,0,2.9,1.9c.9.6,2.5.7,3.3,1.4s.1,1.2.6,2,3.1,1.9,3.8.8-.7-3.6.6-5.1"/>
          <path class="cls-3" d="M493.2,186.9c-.8-.2-1-2-1.4-2.6s-1.6-1.9-2.3-3a7.6,7.6,0,0,0-2.5-2.8c-1-.8-2-1.6-3.3-1.1s-4.3,4.3-5.4,5.9-1.4,3.5-2.2,5.1-1.6,2.5-2.4,3.8a18.9,18.9,0,0,1-3.2,3.7c-1.1.9-2.4,1.5-3.4,2.9l-5.1,7.4c-1.2,1.6-.8,1.5-1.3,3.1-.9,3.6-3.4,7.5-4.9,10.8-.5.9-1,2.6-1.7,3.3s-3.5,1.4-4.5,1.6-5-.5-7.2.1-4.1,3.5-5.7,4.9-6.9,1.5-10.3,1.5c-1.6,0-3.2.1-4.6-.8s-2.6-2.7-4-3.8a4.3,4.3,0,0,1-2-3.5c-.3-2.1-1.3-6.1-3.5-7.1s-2.8-.4-4-.9a28.5,28.5,0,0,0-4.4-1.6c-2.2-.4-2.9.1-4.6,1.5s-3.8,1.4-6.2,2.2c-4.6,1.4-8.5.2-12.9-1.1-2.1-.7-3.6-2.1-5.6-2.9l-3.2-1.7c-2.5-1.6-5.3-2.7-7.2-5.1a33.7,33.7,0,0,0-4.2-4.9c-2.1-1.9-4.5-3.3-6.6-5.2a10.7,10.7,0,0,1-1.6-1.4,2.7,2.7,0,0,0-.3-1.2,6,6,0,0,0-2.3-.1c-2.7-.1-5.2-.7-5.8,2.3s-2.6,7.6-4.1,11.1-1.9,3.8-2.3,6.1a18.9,18.9,0,0,1-1.6,5.1,7,7,0,0,1-1.9,2.9c-2.3,2.5-4.6,4.7-7.1,7s-3.7,2.6-4.5,4.9a6.1,6.1,0,0,1-.8,2.5,5.5,5.5,0,0,0-1.7,2,2.2,2.2,0,0,0-.1,1.4c-.7,1.3-1.7,2-2,3.7-1,0-.9.6-1.6,1a9.6,9.6,0,0,1-1.8.7c-1.7.4-3.3.1-5.1.3s-1.9.5-2.9.7-1.1-.2-1.7.1-2.3,3.5-2.8,5-1.1,2.9-2.4,3.8-2.7.1-3.8,1.8-1.8,3.1-2.9,4.5a6.5,6.5,0,0,0-1.6,4.1c-.2,3.1.1,6.2.1,9.3-.1,4.9-2,9.4-2,14.2v5.2c0,1.9.6,3.4.7,5.2a29,29,0,0,0,.1,5.9c.3,1.6.8,3.1,1.2,4.5s-.3,2.9-1.2,4.2a12.9,12.9,0,0,1-.9,1.6c-1,1.4-2.1,1.3-3.6,1.9s-2.3,6.9-4.5,9.3a6.7,6.7,0,0,1-5.1,1.5,10.5,10.5,0,0,0-4.3.7c-1.8.6-4.6.4-6.3,1.3s-3.3,4.2-4.5,6.1-2,3.4-3,5.1a16.5,16.5,0,0,1-1.9,2.7c-.7.6-1.3.8-1.9,1.4-2.6,2.7-5,7.7-6.1,11.2-.4,1.2-.3,2.5-.9,3.4s-3.9,3.1-5.3,4.3-3.7,2.3-4.7,4-.3,2.7-.5,3.9-.8,1.7-1.1,2.9,0,3.4-.1,5-2.2,4.2-3.4,6.2-3.7,6.7-1.5,9.6,4.2,4.7,7.5,4.9c1,.1,1.3-.2,2,.6a8.3,8.3,0,0,1,.8,2.2c.5,1.9.5,2.8-.7,4.2s-8.8,4.5-3.7,7.5c2.1,1.2,4.3,2,5.4,4.3s.8,4.1,1.4,6.1,1.5,4.4,4.6,4.4c1.4,0,4-.6,4.7.9s-.2,2.2-.6,2.9-2,2.3-4.2,2.8h0c-2,.4-3.4.3-4.9,1.9s-1.1,1.6-1.8,2.2-2.2,1.2-3.2,1.9-2.7,3.6-3.7,5.9a4.3,4.3,0,0,1-2,2.5,15.6,15.6,0,0,0-4,4.1c-2.1,2.7-5.6,4.1-8.6,5.2s-3.9,2.3-6,3-3.4,1.7-5.3,1.8-3.8-.3-5.6,0a18.4,18.4,0,0,1-4,.6c-3-.1-4.8-2.7-7.7-3.2a7.6,7.6,0,0,0-5.7,1.3s-16.5,4.1-23.5,3.2c-1.7-.3,4.5-.6,6.1,0s4.4,5.2,5.4,7.7,1.2,2.3,1.2,4.4-.5,4.2-.6,6.4-.4,4.2,1.4,5.4,4.8,1.7,7,2.1,5.3.5,7.4,0,6.3-2.8,9.6-3.1,5.5.1,8.2,0,3.8-.7,5.9-.7,5.3.7,8,.7,5.8-.1,8.7,0,7.6,1.9,10.4-.3,5.4-6.7,7.4-10.2c.8-1.4,1.2-2.7,2-4s1.5-1.8,2.1-2.7,1.6-1.5,3.6-2,1.4-.9,2.1-1.1,1.3.1,1.9,0,2.3-.9,3.8-.7,5.2,2.5,6.8,4.6,1,2.1,2.7,1.8,4.2-5.8,5.7-7.7c4.1-5.2,9-9.2,14.2-13.1a36.9,36.9,0,0,0,9.4-11c2.6-5,4.8-10.1,7.9-14.8a27.7,27.7,0,0,1,2.2-3.7,6,6,0,0,1,1.1-.6c2.6-1.8,5.2-3.9,7.7-5.8s6.1-5.6,9.4-7.1a7.9,7.9,0,0,1,2.2-.8l3.8-.6c1.3-.2,3.1-1,4.4.1s.6,3.3.6,4.9,0,2.4-1.3,3.9a36.8,36.8,0,0,0-3,3.9c-1.7,2.6-1.6,6.2-3.3,8.8s-2.9,3.1-3.2,5.3-.1,3.3-.8,5.3-.2,2.8-.6,4.3a24.2,24.2,0,0,1-6.2,10.3c-5.3,5.1-10.7,10-17.2,13.3-2,1.1-2.2,1.1-3.3,3.1s-3.3,3.9-3.7,6.4,2.4,5.9,4.9,8.6,8,6.5,12.2,9.7a49.4,49.4,0,0,1,14.2,16.9c.7,1.6,1.5,5.4,3.3,6.4a1.3,1.3,0,0,1,1.7.3,28.5,28.5,0,0,0,2.8,5.5c4,6.4,9.2,12.4,15.7,16.2,3.5,2.1,8.3,2.8,12.2,2.7a54.7,54.7,0,0,0,5.7.1c2-.2,3.4-1.4,5.2-1.9s4.2.6,6.1,1.6,4.9,2.3,7.4,3.7c6.2,3.6,12.4,8.3,19.4,10.1,1.9.5,3.9,1.4,5.8,1.7s7.9-1,10.5-3.1,2.5-3.9,5.3-4.4a43.1,43.1,0,0,0,13.3-5.1c4-2.2,5.2-4.3,7.8-8s2-3.5,2.7-6.7a36.2,36.2,0,0,0,1.3-4.7c.2-1.8-.3-3.6,0-5.5s1.8-3.8,3.1-5.4c3.3-3.9,8.4-5.9,10.7-10.5a12.8,12.8,0,0,1,4-5.4c3.7-2.6,6.7-6.5,10.8-8.5s7.4-2.9,11-4.6,9.1-4.1,12.4-7.1a47.9,47.9,0,0,0,3.6-4.1c1.8-2.2,2.3-2.4,5.3-2.3s6.5-.1,9.8,0,3.6.4,5.5-.5c3.6-1.7,7.3-4,10.8-6a24.5,24.5,0,0,0,9.6-9.8h0a6.3,6.3,0,0,1,4.4-3.5c2.4-.6,3,2.1,3.7,4.2s2,4.4,2.6,6.7.5,2.2.6,3.3a30.1,30.1,0,0,0,.9,4.1,17.6,17.6,0,0,0,8.1,10.4c1.2.6,2.3.6,3.4,1.2s1.5,1.2,2.8,1.4c6.2.9,8.8-4.1,11.8-8.3a6.6,6.6,0,0,1,2.9-2.6c1.9-.7,3.7-.9,5.6-1.9s4-1.9,6.7-1.9a28,28,0,0,0,4.1,0c3.6-.6,1.6-3.1,3-5.4,1.2.9,1.9,4.4,3.3,4.6a120.6,120.6,0,0,0,11-10.4c2.9-3.2,6.9-5.5,10.1-8.4,5.5-4.9,12.6-8.1,15.3-15.4,1-2.9,2.9-5,4.3-7.6s1.3-3,2.2-4.5,2.4-3.8,3.7-5.7,1.1-4,1.6-6.5a9,9,0,0,1,1.7-3c.6-.9,1-2.7,1.9-3.4s1.8-.6,3-.6,7.7-.4,9.5,2.2,1,4.3,1.4,6.2a40.3,40.3,0,0,1,1,8.5c0,1.9-.5,4.5.6,6.1"/>
          <path class="cls-3" d="M497.7,186.3V176c0-1.3-.5-3.2-.1-4.4s1.6-3,2.6-3.3,2.5,1.3,3.3,2.2a30.9,30.9,0,0,1,3.7,4.3,21.1,21.1,0,0,1,1.7,5c.8,2.5,3,3,5.1,4.2,4.1,2.4,8.4,2.2,12.6,4.2a8.4,8.4,0,0,0,4.7.6c2.1-.2,2.5-1.2,3.8-2.6s2.5-2.9,4.3-3.2a17.8,17.8,0,0,1,4,0c1.5.6,1.9,2.5,2.3,3.9s1.5,3.8,2.4,5.7,1.8,4.3,3.8,6.5,3.1,4.2,5.1,4.4c4.3.5,6.9-1.7,9.4-5.2.6-.8,1.6-3.2,2.3-3.7s2.6.5,3.4,1.2,2.1,2.2,3.6,2.6a9.4,9.4,0,0,0,5.5-.6c1.5-.9,1.8-2.4,3.4-3.3a5,5,0,0,1,3.8-.4,30,30,0,0,0,5.3.4h16.7c2.9.1,5.8,1.6,8.3,3s5,3.6,8,4.9c1.4.5,3.3,2.4,4.8,2.5.3,2.5,1.1,6.2,2.6,8.4a26.4,26.4,0,0,0,3.6,3.9c.6.7,1.9,1.4,2.2,2.1a14.1,14.1,0,0,1-.1,2.9,50.5,50.5,0,0,1-.1,5.5c-.1,1-1.3,3.5-.4,4.4s2.9.1,3.2.1c3.8-.2,6.7-3.3,10.2-4.6a21.3,21.3,0,0,1,11.2-.5c1.1.2,2.2-.2,3.3.1a12.4,12.4,0,0,1,2,1,6.5,6.5,0,0,1,2.9,1.4,13.7,13.7,0,0,1,1.8,2.4c.5.6,1.7,1.1,2,1.6s.1,1.7.1,2.3c0,2.3.3,4.5.5,6.8s-.1,3.4.6,5,2.9,2.6,4.6,3.9,1.4,2.4,3.1,2.3,1.3-1,2.8-1.4a15.5,15.5,0,0,0,4.8-.2,14.5,14.5,0,0,0,4.9-1.8c1.3-1,2.2-2.5,3.5-3.6s2.7-2.3,4.1-3.3c5.7-4.1,13.3-1,18.9-4.9a22,22,0,0,0,4.9-4.7c.8-.9,2.7-2.3,2.7-3.7,4.7-1.9,6.8,7,6.9,9.8s-.2,2.5.5,4,2.5,2.5,3.1,4.1.4,3.8,1.4,5.6l1.4,1.9c1.4,1.7,4,3.4,6.2,3.3s2.7-.9,4.3-.6a5.4,5.4,0,0,1,3,1.8l3.8,3.3c1.7,1.4,3,3.9,5.1,4.8s4.1-1.7,5.2-4,2-3.7,2.1-5.4"/>
        </g>
        <g>
          <path class="cls-5" d="M167,465.7a6.4,6.4,0,0,1-6.4,6.4,6.4,6.4,0,1,1,6.4-6.4"/>
          <path class="cls-5" d="M264.1,465.7a6.4,6.4,0,0,1-6.4,6.4,6.4,6.4,0,1,1,6.4-6.4"/>
          <path class="cls-5" d="M317.2,423.8a6.4,6.4,0,0,1-6.4,6.4,6.4,6.4,0,0,1,0-12.8,6.4,6.4,0,0,1,6.4,6.4"/>
          <path class="cls-5" d="M344.7,411.1a6.4,6.4,0,0,1-6.4,6.3,6.3,6.3,0,0,1-6.3-6.3,6.4,6.4,0,0,1,6.3-6.4,6.4,6.4,0,0,1,6.4,6.4"/>
          <path class="cls-5" d="M384,541.2a6.4,6.4,0,0,1-6.3,6.4,6.4,6.4,0,0,1,0-12.8,6.4,6.4,0,0,1,6.3,6.4"/>
          <path class="cls-5" d="M419.3,561.1a6.4,6.4,0,0,1-6.3,6.4,6.4,6.4,0,1,1,0-12.8,6.4,6.4,0,0,1,6.3,6.4"/>
          <path class="cls-5" d="M477.3,503.5a6.3,6.3,0,0,1-12.6,0,6.3,6.3,0,1,1,12.6,0"/>
          <path class="cls-5" d="M563,455.1a6.4,6.4,0,0,1-6.4,6.4,6.4,6.4,0,0,1,0-12.8,6.4,6.4,0,0,1,6.4,6.4"/>
          <path class="cls-5" d="M617.2,470.6a6.4,6.4,0,0,1-6.4,6.4,6.4,6.4,0,0,1,0-12.8,6.4,6.4,0,0,1,6.4,6.4"/>
          <path class="cls-5" d="M688.7,427.8a6.4,6.4,0,0,1-6.3,6.4,6.4,6.4,0,1,1,0-12.8,6.4,6.4,0,0,1,6.3,6.4"/>
          <path class="cls-5" d="M777.9,261.4a6.4,6.4,0,0,1-6.3,6.4,6.4,6.4,0,1,1,0-12.8,6.4,6.4,0,0,1,6.3,6.4"/>
          <path class="cls-5" d="M591.6,194.5a6.3,6.3,0,0,1-6.3,6.4,6.4,6.4,0,1,1,0-12.7,6.3,6.3,0,0,1,6.3,6.3"/>
          <path class="cls-5" d="M566.2,209.8a6.3,6.3,0,0,1-6.3,6.4,6.4,6.4,0,1,1,0-12.7,6.3,6.3,0,0,1,6.3,6.3"/>
          <path class="cls-5" d="M500.7,187.9a6.4,6.4,0,0,1-6.4,6.4,6.4,6.4,0,1,1,6.4-6.4"/>
          <path class="cls-5" d="M248.9,438.5a6.4,6.4,0,0,1-6.4,6.4,6.4,6.4,0,0,1,0-12.8,6.4,6.4,0,0,1,6.4,6.4"/>
        </g>
      </g>
      <g>
        <text class="cls-6" transform="translate(375.2 586.5) scale(0.95 1)">VÍK Í MÝRDAL</text>
        <text class="cls-6" transform="translate(353.1 528.5) scale(0.95 1)">SKÓGAFOSS</text>
        <text class="cls-6" transform="translate(334.7 396.4) scale(0.95 1)">GULLFOSS</text>
        <text class="cls-6" transform="translate(265.4 409.1) scale(0.95 1)">GEYSIR</text>
        <text class="cls-6" transform="translate(226.1 524.1) scale(0.95 1)">HVERAGERÐI</text>
        <text class="cls-6" transform="translate(93.7 490) scale(0.95 1)">KEFLAVÍK</text>
        <text class="cls-6" transform="translate(419.3 322.1) scale(0.95 1)">FJAÐRÁRGLJÚFUR</text>
        <text class="cls-6" transform="translate(510.3 442.4) scale(0.95 1)">SKAFTAFELL</text>
        <text class="cls-6" transform="translate(623.6 474.9) scale(0.95 1)">JÖKULSÁRLÓN</text>
        <text class="cls-6" transform="translate(695.7 433.6) scale(0.95 1)">HÖFN</text>
        <text class="cls-6" transform="translate(753.2 286.3) scale(0.95 1)">SEYÐISFJÖRÐUR</text>
        <text class="cls-6" transform="translate(580.8 184.4) scale(0.95 1)">HVERIR</text>
        <text class="cls-6" transform="translate(533.4 231.6) scale(0.95 1)">MÝVATN</text>
        <text class="cls-6" transform="translate(458.7 158.7) scale(0.95 1)">AKUREYRI</text>
        <text class="cls-6" transform="translate(141 444.3) scale(0.95 1)">REYKJAVÍK</text>
      </g>
    </g>
  </g>
</svg>
