<svg xmlns="http://www.w3.org/2000/svg" viewBox="0 0 206 63">
  <defs>
    <style>
      .a {
        fill: #41ca75;
      }

      .b {
        fill: #4a668c;
      }
    </style>
  </defs>
  <g>
    <path class="a" d="M59.1,3.4a56.2,56.2,0,0,0-8.3,2.9L45.9,8.5,47.8,13l5.1-2.2c.3-.1,22-10.3,34.5,2.2,15.6,15.6,34.8,7.2,39.7,2.6L123.7,12c-2.4,2.3-18.7,11.6-32.8-2.5C84.6,3.2,75.7.7,64.9,2.2A45.6,45.6,0,0,0,59.1,3.4Z"/>
    <path class="a" d="M67.3,40.8a47.6,47.6,0,0,1,8.5,2.3l5.1,1.8-1.7,4.7-5.1-1.8c-.3-.2-22.8-8.8-34.3,4.6C25.4,69.1,5.5,62.1.3,57.9L3.5,54C6.1,56.1,23,64.2,36,49.1c5.8-6.7,14.6-9.8,25.4-9.1Z"/>
    <path class="a" d="M52.2,6.2a43.6,43.6,0,0,0-7.8,3l2.5,4.3C47.7,13,67.5,2,83.5,20.8c18.7,22,41.6,8.3,41.8,8.1l-2.6-4.2c-.7.5-19.5,11.6-35.4-7.1C75.1,3.3,60.8,4,52.2,6.2Z"/>
    <path class="a" d="M137.4,18.9a45.3,45.3,0,0,0-8.3,2.9L124.2,24l2,4.5,5-2.2c.3-.1,22-10.3,34.5,2.2,15.6,15.6,34.9,7.2,39.8,2.6L202,27.5c-2.4,2.3-18.7,11.6-32.8-2.5-6.2-6.3-15.2-8.8-25.9-7.3A47.2,47.2,0,0,0,137.4,18.9Z"/>
    <path class="b" d="M135.6,4.5A56.7,56.7,0,0,0,128,9l-4.4,3.1,2.8,4.1,4.5-3.1c.3-.2,19.6-14.5,34.3-4.7,18.3,12.3,35.6.4,39.5-5.1l-4-2.9c-2,2.7-16.2,15-32.7,3.9-7.4-4.9-16.7-5.6-26.9-2.1A56.9,56.9,0,0,0,135.6,4.5Z"/>
    <path class="b" d="M130.5,21.7a30.8,30.8,0,0,0-7.8,3l2.5,4.3c.9-.5,20.6-11.5,36.6,7.3,18.7,22,41.6,8.3,41.9,8.1l-2.6-4.2c-.8.5-19.6,11.6-35.5-7.1C153.4,18.8,139.1,19.5,130.5,21.7Z"/>
  </g>
</svg>
