<svg xmlns="http://www.w3.org/2000/svg" viewBox="0 0 88.5 64.7">
  <defs>
    <style>
      .a {
        fill: #2f3e49;
      }

      .b {
        fill: #b2bdc6;
      }
    </style>
  </defs>
  <g>
    <g>
      <polygon class="a" points="86 47.8 2.5 47.8 2.5 27.2 6 11.8 72 11.8 86 27.2 86 47.8"/>
      <path class="b" d="M88.5,50.3H0V26.9L4,9.3H73.1L88.5,26.2ZM5,45.4H83.5V28.2l-12.6-14H8L5,27.5Z"/>
    </g>
    <g>
      <polygon class="b" points="59.3 29.7 2.5 29.7 2.5 24.7 54.4 24.7 54.4 14.2 32.6 14.2 32.6 9.3 59.3 9.3 59.3 29.7"/>
      <polygon class="b" points="86 29.7 54.4 29.7 54.4 12.5 59.3 12.5 59.3 24.7 86 24.7 86 29.7"/>
      <rect class="b" x="10.5" y="0.1" width="51.5" height="4.96"/>
    </g>
    <path class="b" d="M88.5,50.3H0V26.9L4,9.3H73.1L88.5,26.2ZM5,45.4H83.5V28.2l-12.6-14H8L5,27.5Z"/>
    <path class="b" d="M68.2,64.8a8.7,8.7,0,1,1,8.7-8.7A8.7,8.7,0,0,1,68.2,64.8Zm0-12.4a3.7,3.7,0,0,0-3.8,3.7,3.8,3.8,0,1,0,7.5,0A3.7,3.7,0,0,0,68.2,52.4Z"/>
    <path class="b" d="M18.9,64.8a8.7,8.7,0,1,1,8.7-8.7A8.7,8.7,0,0,1,18.9,64.8Zm0-12.4a3.7,3.7,0,0,0-3.8,3.7,3.8,3.8,0,0,0,3.8,3.8,3.7,3.7,0,0,0,3.7-3.8A3.6,3.6,0,0,0,18.9,52.4Z"/>
  </g>
</svg>
