<svg xmlns="http://www.w3.org/2000/svg" viewBox="0 0 1024 1280">
  <defs>
    <style>
      .a {
        fill: #f96400;
      }

      .b {
        fill: #f99d00;
      }

      .c {
        fill: #3a646f;
      }

      .d {
        fill: #73c8de;
      }

      .e {
        fill: #c7e9f2;
      }

      .f {
        fill: #2f3e49;
      }

      .g {
        fill: #868e95;
      }
    </style>
  </defs>
  <g>
    <polygon class="a" points="925.8 996.7 922.5 996.7 922.5 982.1 928.1 975.4 930.5 978 925.8 983.6 925.8 996.7"/>
    <polygon class="a" points="907.3 1007 910.6 1007 910.6 988.7 904.9 982 902.5 984.6 907.3 990.2 907.3 1007"/>
    <rect class="a" x="901.2" y="981.1" width="22.9" height="3.77"/>
    <rect class="a" x="834" y="943.1" width="22.9" height="3.77"/>
    <rect class="a" x="928.4" y="996.7" width="22.9" height="3.77"/>
    <polygon class="b" points="936.6 978.4 928.4 978.4 923.6 970.7 912.6 970.7 912.6 966.9 925.3 966.9 930.1 974.7 936.6 974.7 936.6 978.4"/>
    <polygon class="a" points="885.2 968.9 877 968.9 872.2 961.2 849.3 961.2 849.3 957.4 873.9 957.4 878.7 965.2 885.2 965.2 885.2 968.9"/>
    <polygon class="a" points="933.6 1035.5 925.4 1035.5 920.5 1027.8 897.7 1027.8 897.7 1024 922.3 1024 927.1 1031.8 933.6 1031.8 933.6 1035.5"/>
    <polygon class="b" points="914.6 970.7 906.3 970.7 901.5 963 891.8 963 891.8 959.2 903.2 959.2 908.1 966.9 914.6 966.9 914.6 970.7"/>
    <polygon class="b" points="882.3 950.8 874 950.8 869.2 943 859.5 943 859.5 939.3 870.9 939.3 875.7 947 882.3 947 882.3 950.8"/>
    <polygon class="b" points="910.6 1016.1 902.4 1016.1 897.6 1008.4 887.8 1008.4 887.8 1004.6 899.3 1004.6 904.1 1012.3 910.6 1012.3 910.6 1016.1"/>
    <polygon class="b" points="849.3 961.2 849.3 951.8 856.1 946.4 856.1 935.3 859.5 935.3 859.5 948.3 852.6 953.8 852.6 961.2 849.3 961.2"/>
    <polygon class="a" points="862.3 977.1 854.1 977.1 849.3 969.4 839.5 969.4 839.5 965.6 851 965.6 855.8 973.4 862.3 973.4 862.3 977.1"/>
    <polygon class="a" points="865.2 1014.8 865.2 1024.2 858.4 1029.6 858.4 1040.7 855.1 1040.7 855.1 1027.7 861.9 1022.2 861.9 1014.8 865.2 1014.8"/>
    <polygon class="b" points="879.9 984.9 871.7 984.9 866.9 977.2 855.8 977.2 855.8 973.4 868.6 973.4 873.4 981.1 879.9 981.1 879.9 984.9"/>
    <polygon class="b" points="880.6 1022.4 874.4 1022.4 869.6 1014.6 865.2 1014.6 865.2 1010.9 871.3 1010.9 876.1 1018.6 880.6 1018.6 880.6 1022.4"/>
    <polygon class="a" points="919 1024 919 1014.6 925.8 1009.2 925.8 996.7 929.1 996.7 929.1 1011.1 922.3 1016.6 922.3 1024 919 1024"/>
    <polygon class="a" points="826.7 947.3 826.7 938 833.5 932.5 833.5 920 836.9 920 836.9 934.5 830.1 939.9 830.1 947.3 826.7 947.3"/>
    <polygon class="a" points="880.3 992.6 888.6 992.6 893.4 984.9 904.4 984.9 904.4 981.1 891.7 981.1 886.9 988.9 880.3 988.9 880.3 992.6"/>
    <rect class="a" x="879.9" y="977.3" width="12.5" height="3.77"/>
    <rect class="a" x="891.8" y="972" width="3.3" height="9.91"/>
    <rect class="a" x="884.5" y="998.6" width="3.3" height="9.91"/>
    <rect class="b" x="861.9" y="1000.9" width="3.3" height="9.91"/>
    <rect class="b" x="904.4" y="1020.8" width="3.3" height="9.91"/>
    <rect class="b" x="871.6" y="984.2" width="3.3" height="9.91"/>
    <rect class="b" x="834" y="979.7" width="3.3" height="9.91"/>
    <rect class="a" x="880.6" y="1008.5" width="3.3" height="9.91"/>
    <polygon class="a" points="999.8 1038 1003.1 1038 1003.1 1056.3 997.5 1063 995.1 1060.4 999.8 1054.8 999.8 1038"/>
    <rect class="a" x="993.7" y="1060.1" width="11.3" height="3.77"/>
    <rect class="a" x="926.6" y="1098.1" width="22.9" height="3.77"/>
    <polygon class="a" points="977.8 1076.1 969.6 1076.1 964.7 1083.8 941.9 1083.8 941.9 1087.6 966.5 1087.6 971.3 1079.8 977.8 1079.8 977.8 1076.1"/>
    <rect class="a" x="990.2" y="1017.2" width="14.8" height="3.77"/>
    <polygon class="b" points="1005 1074.3 998.9 1074.3 994.1 1082 984.3 1082 984.3 1085.8 995.8 1085.8 1000.6 1078.1 1005 1078.1 1005 1074.3"/>
    <polygon class="b" points="974.8 1094.2 966.6 1094.2 961.8 1102 952 1102 952 1105.7 963.5 1105.7 968.3 1098 974.8 1098 974.8 1094.2"/>
    <polygon class="b" points="1003.2 1028.9 994.9 1028.9 990.1 1036.6 980.3 1036.6 980.3 1040.4 991.8 1040.4 996.6 1032.7 1003.2 1032.7 1003.2 1028.9"/>
    <polygon class="b" points="941.9 1083.8 941.9 1093.2 948.7 1098.6 948.7 1109.7 952 1109.7 952 1096.7 945.2 1091.2 945.2 1083.8 941.9 1083.8"/>
    <polygon class="a" points="954.9 1067.9 946.6 1067.9 941.8 1075.6 932.1 1075.6 932.1 1079.4 943.5 1079.4 948.4 1071.6 954.9 1071.6 954.9 1067.9"/>
    <polygon class="a" points="957.8 1030.2 957.8 1020.8 951 1015.4 951 1004.3 947.7 1004.3 947.7 1017.3 954.5 1022.8 954.5 1030.2 957.8 1030.2"/>
    <polygon class="b" points="972.5 1060.1 964.2 1060.1 959.4 1067.8 948.4 1067.8 948.4 1071.6 961.1 1071.6 965.9 1063.9 972.5 1063.9 972.5 1060.1"/>
    <polygon class="b" points="973.2 1022.6 966.9 1022.6 962.1 1030.4 957.8 1030.4 957.8 1034.1 963.8 1034.1 968.6 1026.4 973.2 1026.4 973.2 1022.6"/>
    <polygon class="a" points="919.3 1097.7 919.3 1107 926.1 1112.5 926.1 1125 929.4 1125 929.4 1110.5 922.6 1105.1 922.6 1097.7 919.3 1097.7"/>
    <polygon class="a" points="972.9 1052.4 981.1 1052.4 985.9 1060.1 996.9 1060.1 996.9 1063.9 984.2 1063.9 979.4 1056.1 972.9 1056.1 972.9 1052.4"/>
    <rect class="a" x="972.5" y="1063.9" width="12.5" height="3.77"/>
    <rect class="a" x="984.3" y="1063.1" width="3.3" height="9.91"/>
    <rect class="a" x="977" y="1036.5" width="3.3" height="9.91"/>
    <rect class="b" x="954.5" y="1034.1" width="3.3" height="9.91"/>
    <rect class="b" x="996.9" y="1014.3" width="3.3" height="9.91"/>
    <rect class="b" x="964.2" y="1050.9" width="3.3" height="9.91"/>
    <rect class="b" x="926.6" y="1055.4" width="3.3" height="9.91"/>
    <rect class="a" x="973.2" y="1026.6" width="3.3" height="9.91"/>
  </g>
  <g>
    <g>
      <rect class="c" x="837" y="188.7" width="5" height="11.05"/>
      <rect class="c" x="847" y="188.7" width="5" height="11.05"/>
      <rect class="c" x="872" y="177.4" width="5" height="11.05"/>
      <rect class="c" x="877" y="188.7" width="5" height="11.05"/>
      <rect class="c" x="892" y="177.7" width="5" height="11.05"/>
      <rect class="c" x="897" y="188.7" width="5" height="11.05"/>
      <rect class="c" x="917" y="188.7" width="5" height="11.05"/>
      <rect class="d" x="847" y="210.8" width="5" height="11.05"/>
      <rect class="d" x="857" y="210.8" width="5" height="11.05"/>
      <rect class="d" x="867" y="210.8" width="5" height="11.05"/>
      <rect class="d" x="887" y="210.8" width="5" height="11.05"/>
      <rect class="d" x="897" y="210.8" width="5" height="11.05"/>
      <rect class="c" x="907" y="210.8" width="5" height="11.05"/>
      <rect class="d" x="917" y="210.8" width="5" height="11.05"/>
      <rect class="d" x="867" y="232.9" width="5" height="11.05"/>
      <rect class="d" x="877" y="232.9" width="5" height="11.05"/>
      <rect class="d" x="887" y="232.9" width="5" height="11.05"/>
      <rect class="d" x="897" y="232.9" width="5" height="11.05"/>
      <rect class="d" x="907" y="232.9" width="5" height="11.05"/>
      <rect class="e" x="867" y="255" width="5" height="11.05"/>
      <rect class="d" x="887" y="255" width="5" height="11.05"/>
      <rect class="e" x="897" y="255" width="5" height="11.05"/>
      <rect class="e" x="877" y="277.1" width="5" height="11.05"/>
      <rect class="e" x="887" y="277.1" width="5" height="11.05"/>
      <rect class="e" x="907" y="255" width="5" height="11.05"/>
      <rect class="d" x="917" y="232.9" width="5" height="11.05"/>
      <rect class="c" x="937" y="188.7" width="5" height="11.05"/>
      <rect class="d" x="842" y="199.8" width="5" height="11.05"/>
      <rect class="c" x="852" y="199.8" width="5" height="11.05"/>
      <rect class="d" x="862" y="199.8" width="5" height="11.05"/>
      <rect class="d" x="872" y="199.8" width="5" height="11.05"/>
      <rect class="d" x="882" y="199.8" width="5" height="11.05"/>
      <rect class="d" x="892" y="199.8" width="5" height="11.05"/>
      <rect class="d" x="902" y="199.8" width="5" height="11.05"/>
      <rect class="c" x="912" y="199.8" width="5" height="11.05"/>
      <rect class="d" x="922" y="199.8" width="5" height="11.05"/>
      <rect class="d" x="852" y="221.8" width="5" height="11.05"/>
      <rect class="d" x="862" y="221.8" width="5" height="11.05"/>
      <rect class="c" x="872" y="221.8" width="5" height="11.05"/>
      <rect class="d" x="882" y="221.8" width="5" height="11.05"/>
      <rect class="d" x="892" y="221.8" width="5" height="11.05"/>
      <rect class="d" x="902" y="221.8" width="5" height="11.05"/>
      <rect class="d" x="912" y="221.8" width="5" height="11.05"/>
      <rect class="e" x="862" y="243.9" width="5" height="11.05"/>
      <rect class="e" x="872" y="243.9" width="5" height="11.05"/>
      <rect class="e" x="882" y="243.9" width="5" height="11.05"/>
      <rect class="d" x="892" y="243.9" width="5" height="11.05"/>
      <rect class="e" x="902" y="243.9" width="5" height="11.05"/>
      <rect class="e" x="872" y="266" width="5" height="11.05"/>
      <rect class="d" x="882" y="266" width="5" height="11.05"/>
      <rect class="e" x="892" y="266" width="5" height="11.05"/>
      <rect class="e" x="887" y="298.7" width="5" height="11.05"/>
      <rect class="e" x="882" y="287.6" width="5" height="11.05"/>
      <rect class="e" x="892" y="287.6" width="5" height="11.05"/>
      <rect class="e" x="902" y="266" width="5" height="11.05"/>
      <rect class="e" x="912" y="243.9" width="5" height="11.05"/>
      <rect class="d" x="922" y="221.8" width="5" height="11.05"/>
      <rect class="d" x="932" y="199.8" width="5" height="11.05"/>
      <rect class="c" x="927" y="177.7" width="5" height="11.05"/>
      <rect class="c" x="852" y="177.7" width="5" height="11.05"/>
      <rect class="c" x="827" y="166" width="5" height="11.05"/>
      <rect class="c" x="912" y="166.1" width="5" height="11.05"/>
      <rect class="c" x="947" y="167.4" width="5" height="11.05"/>
      <rect class="d" x="827" y="210.8" width="5" height="11.05"/>
      <rect class="d" x="942" y="177.7" width="5" height="11.05"/>
    </g>
    <path class="e" d="M889.9,332.6c-5.7,0-10-3.1-10-7.1s4.3-7,10-7,10,3,10,7S895.6,332.6,889.9,332.6Zm0-8.9c-3.3,0-5,1.4-5,1.8s1.7,1.8,5,1.8,4.9-1.3,5-1.8S893.1,323.7,889.9,323.7Z"/>
  </g>
  <g>
    <g>
      <g>
        <path class="f" d="M58.8,513.6c-3.6-1.2-6.8-5.4-6.8-8.9v-8.4l-2.4-1.2-1-2.6,3.8-2.2a6.7,6.7,0,0,1,6.5-4.4c3.7,0,6.8,3,6.8,6.3s3.6,6.8,3.6,6.8l28.9,15.4S62.5,514.8,58.8,513.6Z"/>
        <path class="g" d="M85.9,516.4c-11,0-25.2-.1-27.8-1h0c-4.3-1.4-8.2-6.4-8.2-10.7v-7.3l-2-1L46,491.7l4.6-2.7a9,9,0,0,1,8.3-5c4.8,0,8.9,3.7,8.9,8.2,0,1.9,1.9,4.3,2.9,5.3l35.1,18.8H85.9Zm-26.4-4.6c1.9.6,16.2.8,31.1.8L68,500.5l-.2-.2c-.4-.4-4.2-4.2-4.2-8.1a4.8,4.8,0,0,0-9.2-1.3l-.3.6-3,1.8.2.4,2.8,1.4v9.6C54.1,507.4,56.8,510.9,59.5,511.8Z"/>
      </g>
      <polygon class="g" points="108.4 521.1 97 515.1 108.4 509.1 108.4 521.1"/>
    </g>
    <g>
      <g>
        <path class="f" d="M96.8,487.4c-3.5-1.2-6.7-5.5-6.7-8.9V470l-2.5-1.2-1-2.6,3.8-2.2a6.7,6.7,0,0,1,6.5-4.3c3.8,0,6.8,3,6.8,6.2s3.6,6.8,3.6,6.8l28.9,15.5S100.5,488.6,96.8,487.4Z"/>
        <path class="g" d="M123.9,490.2c-11,0-25.2-.2-27.8-1h0c-4.3-1.5-8.1-6.5-8.1-10.7v-7.3l-2.1-1L84,465.5l4.7-2.7a8.8,8.8,0,0,1,8.2-5.1c4.8,0,8.9,3.8,8.9,8.2,0,1.9,1.9,4.3,2.9,5.3L143.8,490H123.9Zm-26.4-4.6c1.9.5,16.2.8,31.1.7L106,474.2l-.2-.2c-.4-.4-4.2-4.2-4.2-8.1a4.8,4.8,0,0,0-9.2-1.3l-.3.7-3,1.7.2.5,2.9,1.4v9.6C92.2,481.2,94.8,484.7,97.5,485.6Z"/>
      </g>
      <polygon class="g" points="146.4 494.9 135.1 488.9 146.4 482.9 146.4 494.9"/>
    </g>
    <g>
      <g>
        <path class="f" d="M137.4,535.5c-3.5-1.2-6.7-5.5-6.7-8.9v-8.5l-2.5-1.2-1-2.5,3.8-2.2a6.6,6.6,0,0,1,6.5-4.4c3.8,0,6.8,3,6.8,6.2s3.6,6.8,3.6,6.8l28.9,15.5S141.1,536.7,137.4,535.5Z"/>
        <path class="g" d="M164.5,538.3c-11,0-25.2-.2-27.8-1h0c-4.3-1.4-8.1-6.4-8.1-10.7v-7.3l-2.1-1-1.9-4.7,4.7-2.7a8.6,8.6,0,0,1,8.2-5c4.8,0,8.9,3.7,8.9,8.1,0,1.9,1.9,4.3,2.9,5.3l35.1,18.8H164.5Zm-26.4-4.6c1.9.6,16.2.8,31.1.7l-22.6-12.1-.2-.2c-.4-.4-4.2-4.1-4.2-8.1a4.8,4.8,0,0,0-9.2-1.3l-.3.7-3,1.7.2.5,2.8,1.4v9.6C132.7,529.3,135.4,532.8,138.1,533.7Z"/>
      </g>
      <polygon class="g" points="187 543 175.7 537 187 531 187 543"/>
    </g>
    <ellipse class="g" cx="58.9" cy="492.1" rx="2.1" ry="1.9"/>
    <ellipse class="g" cx="96.9" cy="465.5" rx="2.1" ry="1.9"/>
    <ellipse class="g" cx="137.5" cy="514.4" rx="2.1" ry="1.9"/>
  </g>
</svg>
