<svg xmlns="http://www.w3.org/2000/svg" viewBox="0 0 1024 1280">
  <defs>
    <style>
      .a {
        fill: #f96400;
      }

      .b {
        fill: #f99d00;
      }

      .c {
        fill: #3a646f;
      }

      .d {
        fill: #73c8de;
      }

      .e {
        fill: #c7e9f2;
      }

      .f {
        fill: #2f3e49;
      }

      .g {
        fill: #868e95;
      }
    </style>
  </defs>
  <g>
    <polygon class="a" points="940.8 996.7 937.5 996.7 937.5 982.1 943.1 975.4 945.5 978 940.8 983.6 940.8 996.7"/>
    <polygon class="a" points="922.3 1007 925.6 1007 925.6 988.7 919.9 982 917.5 984.6 922.3 990.2 922.3 1007"/>
    <rect class="a" x="916.2" y="981.1" width="22.9" height="3.77"/>
    <rect class="a" x="849" y="943.1" width="22.9" height="3.77"/>
    <rect class="a" x="943.4" y="996.7" width="22.9" height="3.77"/>
    <polygon class="b" points="951.6 978.4 943.4 978.4 938.6 970.7 927.6 970.7 927.6 966.9 940.3 966.9 945.1 974.7 951.6 974.7 951.6 978.4"/>
    <polygon class="a" points="900.2 968.9 892 968.9 887.2 961.2 864.3 961.2 864.3 957.4 888.9 957.4 893.7 965.2 900.2 965.2 900.2 968.9"/>
    <polygon class="a" points="948.6 1035.5 940.4 1035.5 935.5 1027.8 912.7 1027.8 912.7 1024 937.3 1024 942.1 1031.8 948.6 1031.8 948.6 1035.5"/>
    <polygon class="b" points="929.6 970.7 921.3 970.7 916.5 963 906.8 963 906.8 959.2 918.2 959.2 923.1 966.9 929.6 966.9 929.6 970.7"/>
    <polygon class="b" points="897.3 950.8 889 950.8 884.2 943 874.5 943 874.5 939.3 885.9 939.3 890.7 947 897.3 947 897.3 950.8"/>
    <polygon class="b" points="925.6 1016.1 917.4 1016.1 912.6 1008.4 902.8 1008.4 902.8 1004.6 914.3 1004.6 919.1 1012.3 925.6 1012.3 925.6 1016.1"/>
    <polygon class="b" points="864.3 961.2 864.3 951.8 871.1 946.4 871.1 935.3 874.5 935.3 874.5 948.3 867.6 953.8 867.6 961.2 864.3 961.2"/>
    <polygon class="a" points="877.3 977.1 869.1 977.1 864.3 969.4 854.5 969.4 854.5 965.6 866 965.6 870.8 973.4 877.3 973.4 877.3 977.1"/>
    <polygon class="a" points="880.2 1014.8 880.2 1024.2 873.4 1029.6 873.4 1040.7 870.1 1040.7 870.1 1027.7 876.9 1022.2 876.9 1014.8 880.2 1014.8"/>
    <polygon class="b" points="894.9 984.9 886.7 984.9 881.9 977.2 870.8 977.2 870.8 973.4 883.6 973.4 888.4 981.1 894.9 981.1 894.9 984.9"/>
    <polygon class="b" points="895.6 1022.4 889.4 1022.4 884.6 1014.6 880.2 1014.6 880.2 1010.9 886.3 1010.9 891.1 1018.6 895.6 1018.6 895.6 1022.4"/>
    <polygon class="a" points="934 1024 934 1014.6 940.8 1009.2 940.8 996.7 944.1 996.7 944.1 1011.1 937.3 1016.6 937.3 1024 934 1024"/>
    <polygon class="a" points="841.7 947.3 841.7 938 848.5 932.5 848.5 920 851.9 920 851.9 934.5 845.1 939.9 845.1 947.3 841.7 947.3"/>
    <polygon class="a" points="895.3 992.6 903.6 992.6 908.4 984.9 919.4 984.9 919.4 981.1 906.7 981.1 901.9 988.9 895.3 988.9 895.3 992.6"/>
    <rect class="a" x="894.9" y="977.3" width="12.5" height="3.77"/>
    <rect class="a" x="906.8" y="972" width="3.3" height="9.91"/>
    <rect class="a" x="899.5" y="998.6" width="3.3" height="9.91"/>
    <rect class="b" x="876.9" y="1000.9" width="3.3" height="9.91"/>
    <rect class="b" x="919.4" y="1020.8" width="3.3" height="9.91"/>
    <rect class="b" x="886.6" y="984.2" width="3.3" height="9.91"/>
    <rect class="b" x="849" y="979.7" width="3.3" height="9.91"/>
    <rect class="a" x="895.6" y="1008.5" width="3.3" height="9.91"/>
    <polygon class="a" points="1014.8 1038 1018.1 1038 1018.1 1056.3 1012.5 1063 1010.1 1060.4 1014.8 1054.8 1014.8 1038"/>
    <rect class="a" x="1008.7" y="1060.1" width="11.3" height="3.77"/>
    <rect class="a" x="941.6" y="1098.1" width="22.9" height="3.77"/>
    <polygon class="a" points="992.8 1076.1 984.6 1076.1 979.7 1083.8 956.9 1083.8 956.9 1087.6 981.5 1087.6 986.3 1079.8 992.8 1079.8 992.8 1076.1"/>
    <rect class="a" x="1005.2" y="1017.2" width="14.8" height="3.77"/>
    <polygon class="b" points="1020 1074.3 1013.9 1074.3 1009.1 1082 999.3 1082 999.3 1085.8 1010.8 1085.8 1015.6 1078.1 1020 1078.1 1020 1074.3"/>
    <polygon class="b" points="989.8 1094.2 981.6 1094.2 976.8 1102 967 1102 967 1105.7 978.5 1105.7 983.3 1098 989.8 1098 989.8 1094.2"/>
    <polygon class="b" points="1018.2 1028.9 1009.9 1028.9 1005.1 1036.6 995.3 1036.6 995.3 1040.4 1006.8 1040.4 1011.6 1032.7 1018.2 1032.7 1018.2 1028.9"/>
    <polygon class="b" points="956.9 1083.8 956.9 1093.2 963.7 1098.6 963.7 1109.7 967 1109.7 967 1096.7 960.2 1091.2 960.2 1083.8 956.9 1083.8"/>
    <polygon class="a" points="969.9 1067.9 961.6 1067.9 956.8 1075.6 947.1 1075.6 947.1 1079.4 958.5 1079.4 963.4 1071.6 969.9 1071.6 969.9 1067.9"/>
    <polygon class="a" points="972.8 1030.2 972.8 1020.8 966 1015.4 966 1004.3 962.7 1004.3 962.7 1017.3 969.5 1022.8 969.5 1030.2 972.8 1030.2"/>
    <polygon class="b" points="987.5 1060.1 979.2 1060.1 974.4 1067.8 963.4 1067.8 963.4 1071.6 976.1 1071.6 980.9 1063.9 987.5 1063.9 987.5 1060.1"/>
    <polygon class="b" points="988.2 1022.6 981.9 1022.6 977.1 1030.4 972.8 1030.4 972.8 1034.1 978.8 1034.1 983.6 1026.4 988.2 1026.4 988.2 1022.6"/>
    <polygon class="a" points="934.3 1097.7 934.3 1107 941.1 1112.5 941.1 1125 944.4 1125 944.4 1110.5 937.6 1105.1 937.6 1097.7 934.3 1097.7"/>
    <polygon class="a" points="987.9 1052.4 996.1 1052.4 1000.9 1060.1 1011.9 1060.1 1011.9 1063.9 999.2 1063.9 994.4 1056.1 987.9 1056.1 987.9 1052.4"/>
    <rect class="a" x="987.5" y="1063.9" width="12.5" height="3.77"/>
    <rect class="a" x="999.3" y="1063.1" width="3.3" height="9.91"/>
    <rect class="a" x="992" y="1036.5" width="3.3" height="9.91"/>
    <rect class="b" x="969.5" y="1034.1" width="3.3" height="9.91"/>
    <rect class="b" x="1011.9" y="1014.3" width="3.3" height="9.91"/>
    <rect class="b" x="979.2" y="1050.9" width="3.3" height="9.91"/>
    <rect class="b" x="941.6" y="1055.4" width="3.3" height="9.91"/>
    <rect class="a" x="988.2" y="1026.6" width="3.3" height="9.91"/>
  </g>
  <g>
    <g>
      <rect class="c" x="848" y="188.7" width="5" height="11.05"/>
      <rect class="c" x="858" y="188.7" width="5" height="11.05"/>
      <rect class="c" x="883" y="177.4" width="5" height="11.05"/>
      <rect class="c" x="888" y="188.7" width="5" height="11.05"/>
      <rect class="c" x="903" y="177.7" width="5" height="11.05"/>
      <rect class="c" x="908" y="188.7" width="5" height="11.05"/>
      <rect class="c" x="928" y="188.7" width="5" height="11.05"/>
      <rect class="d" x="858" y="210.8" width="5" height="11.05"/>
      <rect class="d" x="868" y="210.8" width="5" height="11.05"/>
      <rect class="d" x="878" y="210.8" width="5" height="11.05"/>
      <rect class="d" x="898" y="210.8" width="5" height="11.05"/>
      <rect class="d" x="908" y="210.8" width="5" height="11.05"/>
      <rect class="c" x="918" y="210.8" width="5" height="11.05"/>
      <rect class="d" x="928" y="210.8" width="5" height="11.05"/>
      <rect class="d" x="878" y="232.9" width="5" height="11.05"/>
      <rect class="d" x="888" y="232.9" width="5" height="11.05"/>
      <rect class="d" x="898" y="232.9" width="5" height="11.05"/>
      <rect class="d" x="908" y="232.9" width="5" height="11.05"/>
      <rect class="d" x="918" y="232.9" width="5" height="11.05"/>
      <rect class="e" x="878" y="255" width="5" height="11.05"/>
      <rect class="d" x="898" y="255" width="5" height="11.05"/>
      <rect class="e" x="908" y="255" width="5" height="11.05"/>
      <rect class="e" x="888" y="277.1" width="5" height="11.05"/>
      <rect class="e" x="898" y="277.1" width="5" height="11.05"/>
      <rect class="e" x="918" y="255" width="5" height="11.05"/>
      <rect class="d" x="928" y="232.9" width="5" height="11.05"/>
      <rect class="c" x="948" y="188.7" width="5" height="11.05"/>
      <rect class="d" x="853" y="199.8" width="5" height="11.05"/>
      <rect class="c" x="863" y="199.8" width="5" height="11.05"/>
      <rect class="d" x="873" y="199.8" width="5" height="11.05"/>
      <rect class="d" x="883" y="199.8" width="5" height="11.05"/>
      <rect class="d" x="893" y="199.8" width="5" height="11.05"/>
      <rect class="d" x="903" y="199.8" width="5" height="11.05"/>
      <rect class="d" x="913" y="199.8" width="5" height="11.05"/>
      <rect class="c" x="923" y="199.8" width="5" height="11.05"/>
      <rect class="d" x="933" y="199.8" width="5" height="11.05"/>
      <rect class="d" x="863" y="221.8" width="5" height="11.05"/>
      <rect class="d" x="873" y="221.8" width="5" height="11.05"/>
      <rect class="c" x="883" y="221.8" width="5" height="11.05"/>
      <rect class="d" x="893" y="221.8" width="5" height="11.05"/>
      <rect class="d" x="903" y="221.8" width="5" height="11.05"/>
      <rect class="d" x="913" y="221.8" width="5" height="11.05"/>
      <rect class="d" x="923" y="221.8" width="5" height="11.05"/>
      <rect class="e" x="873" y="243.9" width="5" height="11.05"/>
      <rect class="e" x="883" y="243.9" width="5" height="11.05"/>
      <rect class="e" x="893" y="243.9" width="5" height="11.05"/>
      <rect class="d" x="903" y="243.9" width="5" height="11.05"/>
      <rect class="e" x="913" y="243.9" width="5" height="11.05"/>
      <rect class="e" x="883" y="266" width="5" height="11.05"/>
      <rect class="d" x="893" y="266" width="5" height="11.05"/>
      <rect class="e" x="903" y="266" width="5" height="11.05"/>
      <rect class="e" x="898" y="298.7" width="5" height="11.05"/>
      <rect class="e" x="893" y="287.6" width="5" height="11.05"/>
      <rect class="e" x="903" y="287.6" width="5" height="11.05"/>
      <rect class="e" x="913" y="266" width="5" height="11.05"/>
      <rect class="e" x="923" y="243.9" width="5" height="11.05"/>
      <rect class="d" x="933" y="221.8" width="5" height="11.05"/>
      <rect class="d" x="943" y="199.8" width="5" height="11.05"/>
      <rect class="c" x="938" y="177.7" width="5" height="11.05"/>
      <rect class="c" x="863" y="177.7" width="5" height="11.05"/>
      <rect class="c" x="838" y="166" width="5" height="11.05"/>
      <rect class="c" x="923" y="166.1" width="5" height="11.05"/>
      <rect class="c" x="958" y="167.4" width="5" height="11.05"/>
      <rect class="d" x="838" y="210.8" width="5" height="11.05"/>
      <rect class="d" x="953" y="177.7" width="5" height="11.05"/>
    </g>
    <path class="e" d="M900.9,332.6c-5.7,0-10-3.1-10-7.1s4.3-7,10-7,10,3,10,7S906.6,332.6,900.9,332.6Zm0-8.9c-3.3,0-5,1.4-5,1.8s1.7,1.8,5,1.8,4.9-1.3,5-1.8S904.1,323.7,900.9,323.7Z"/>
  </g>
  <g>
    <g>
      <g>
        <path class="f" d="M17.8,513.6c-3.6-1.2-6.8-5.4-6.8-8.9v-8.4l-2.4-1.2-1-2.6,3.8-2.2a6.7,6.7,0,0,1,6.5-4.4c3.7,0,6.8,3,6.8,6.3s3.6,6.8,3.6,6.8l28.9,15.4S21.5,514.8,17.8,513.6Z"/>
        <path class="g" d="M44.9,516.4c-11,0-25.2-.1-27.8-1h0c-4.3-1.4-8.2-6.4-8.2-10.7v-7.3l-2-1L5,491.7,9.6,489a9.1,9.1,0,0,1,8.3-5c4.8,0,8.9,3.7,8.9,8.2,0,1.9,1.9,4.3,2.9,5.3l35.1,18.8H44.9Zm-26.4-4.6c1.9.6,16.2.8,31.1.8L27,500.5l-.2-.2c-.4-.4-4.2-4.2-4.2-8.1a4.8,4.8,0,0,0-5.3-4.2,4.9,4.9,0,0,0-3.9,2.9l-.3.6-3,1.8.2.4,2.8,1.4v9.6c0,2.7,2.7,6.2,5.4,7.1Z"/>
      </g>
      <polygon class="g" points="67.4 521.1 56 515.1 67.4 509.1 67.4 521.1"/>
    </g>
    <g>
      <g>
        <path class="f" d="M55.8,487.4c-3.5-1.2-6.7-5.5-6.7-8.9V470l-2.5-1.2-1-2.6,3.8-2.2a6.6,6.6,0,0,1,6.5-4.3c3.8,0,6.8,3,6.8,6.2s3.6,6.8,3.6,6.8l28.9,15.5S59.5,488.6,55.8,487.4Z"/>
        <path class="g" d="M82.9,490.2c-11,0-25.2-.2-27.8-1h0c-4.3-1.5-8.1-6.5-8.1-10.7v-7.3l-2.1-1L43,465.5l4.7-2.7a8.8,8.8,0,0,1,8.2-5.1c4.8,0,8.9,3.8,8.9,8.2,0,1.9,1.9,4.3,2.9,5.3L102.8,490H82.9Zm-26.4-4.6c1.9.5,16.2.8,31.1.7L65,474.2l-.2-.2c-.4-.4-4.2-4.2-4.2-8.1a4.8,4.8,0,0,0-5.3-4.2,4.9,4.9,0,0,0-3.9,2.9l-.3.7-3,1.7.2.5,2.9,1.4v9.6C51.2,481.2,53.8,484.7,56.5,485.6Z"/>
      </g>
      <polygon class="g" points="105.4 494.9 94.1 488.9 105.4 482.9 105.4 494.9"/>
    </g>
    <g>
      <g>
        <path class="f" d="M96.4,535.5c-3.5-1.2-6.7-5.5-6.7-8.9v-8.5l-2.5-1.2-1-2.5,3.8-2.2a6.7,6.7,0,0,1,6.5-4.4c3.8,0,6.8,3,6.8,6.2s3.6,6.8,3.6,6.8l28.9,15.5S100.1,536.7,96.4,535.5Z"/>
        <path class="g" d="M123.5,538.3c-11,0-25.2-.2-27.8-1h0c-4.3-1.4-8.1-6.4-8.1-10.7v-7.3l-2.1-1-1.9-4.7,4.7-2.7a8.5,8.5,0,0,1,8.2-5c4.8,0,8.9,3.7,8.9,8.1,0,1.9,1.9,4.3,2.9,5.3l35.1,18.8H123.5Zm-26.4-4.6c1.9.6,16.2.8,31.1.7l-22.6-12.1-.2-.2c-.4-.4-4.2-4.1-4.2-8.1a4.8,4.8,0,0,0-5.3-4.2,4.9,4.9,0,0,0-3.9,2.9l-.3.7-3,1.7.2.5,2.8,1.4v9.6C91.7,529.3,94.4,532.8,97.1,533.7Z"/>
      </g>
      <polygon class="g" points="146 543 134.7 537 146 531 146 543"/>
    </g>
    <ellipse class="g" cx="17.9" cy="492.1" rx="2.1" ry="1.9"/>
    <ellipse class="g" cx="55.9" cy="465.5" rx="2.1" ry="1.9"/>
    <ellipse class="g" cx="96.5" cy="514.4" rx="2.1" ry="1.9"/>
  </g>
</svg>
